<svg xmlns="http://www.w3.org/2000/svg" width="950" height="160" viewBox="0 0 950 160" class="chart"><g transform="translate(20,20)"><g class="year" font-size="smaller" transform="translate(30,0)"><text class="year-title" transform="translate(-38,57.68518518518518)rotate(-90)" text-anchor="middle">2022</text><rect fill="transparent" class="day" stroke="black" stroke-width="0.5" width="16.48148148148148" height="16.48148148148148" x="0" y="82.4074074074074"></rect><rect fill="transparent" class="day" stroke="black" stroke-width="0.5" width="16.48148148148148" height="16.48148148148148" x="0" y="98.88888888888889"></rect><rect fill="transparent" class="day" stroke="black" stroke-width="0.5" width="16.48148148148148" height="16.48148148148148" x="16.48148148148148" y="0"></rect><rect fill="transparent" class="day" stroke="black" stroke-width="0.5" width="16.48148148148148" height="16.48148148148148" x="16.48148148148148" y="16.48148148148148"></rect><rect fill="transparent" class="day" stroke="black" stroke-width="0.5" width="16.48148148148148" height="16.48148148148148" x="16.48148148148148" y="32.96296296296296"></rect><rect fill="transparent" class="day" stroke="black" stroke-width="0.5" width="16.48148148148148" height="16.48148148148148" x="16.48148148148148" y="49.44444444444444"></rect><rect fill="transparent" class="day" stroke="black" stroke-width="0.5" width="16.48148148148148" height="16.48148148148148" x="16.48148148148148" y="65.92592592592592"></rect><rect fill="transparent" class="day" stroke="black" stroke-width="0.5" width="16.48148148148148" height="16.48148148148148" x="16.48148148148148" y="82.4074074074074"></rect><rect fill="transparent" class="day" stroke="black" stroke-width="0.5" width="16.48148148148148" height="16.48148148148148" x="16.48148148148148" y="98.88888888888889"></rect><rect fill="transparent" class="day" stroke="black" stroke-width="0.5" width="16.48148148148148" height="16.48148148148148" x="32.96296296296296" y="0"></rect><rect fill="transparent" class="day" stroke="black" stroke-width="0.5" width="16.48148148148148" height="16.48148148148148" x="32.96296296296296" y="16.48148148148148"></rect><rect fill="transparent" class="day" stroke="black" stroke-width="0.5" width="16.48148148148148" height="16.48148148148148" x="32.96296296296296" y="32.96296296296296"></rect><rect fill="transparent" class="day" stroke="black" stroke-width="0.5" width="16.48148148148148" height="16.48148148148148" x="32.96296296296296" y="49.44444444444444"></rect><rect fill="transparent" class="day" stroke="black" stroke-width="0.5" width="16.48148148148148" height="16.48148148148148" x="32.96296296296296" y="65.92592592592592"></rect><rect fill="transparent" class="day" stroke="black" stroke-width="0.5" width="16.48148148148148" height="16.48148148148148" x="32.96296296296296" y="82.4074074074074"></rect><rect fill="transparent" class="day" stroke="black" stroke-width="0.5" width="16.48148148148148" height="16.48148148148148" x="32.96296296296296" y="98.88888888888889"></rect><rect fill="transparent" class="day" stroke="black" stroke-width="0.5" width="16.48148148148148" height="16.48148148148148" x="49.44444444444444" y="0"></rect><rect fill="transparent" class="day" stroke="black" stroke-width="0.5" width="16.48148148148148" height="16.48148148148148" x="49.44444444444444" y="16.48148148148148"></rect><rect fill="transparent" class="day" stroke="black" stroke-width="0.5" width="16.48148148148148" height="16.48148148148148" x="49.44444444444444" y="32.96296296296296"></rect><rect fill="transparent" class="day" stroke="black" stroke-width="0.5" width="16.48148148148148" height="16.48148148148148" x="49.44444444444444" y="49.44444444444444"></rect><rect fill="transparent" class="day" stroke="black" stroke-width="0.5" width="16.48148148148148" height="16.48148148148148" x="49.44444444444444" y="65.92592592592592"></rect><rect fill="transparent" class="day" stroke="black" stroke-width="0.5" width="16.48148148148148" height="16.48148148148148" x="49.44444444444444" y="82.4074074074074"></rect><rect fill="transparent" class="day" stroke="black" stroke-width="0.5" width="16.48148148148148" height="16.48148148148148" x="49.44444444444444" y="98.88888888888889"></rect><rect fill="transparent" class="day" stroke="black" stroke-width="0.5" width="16.48148148148148" height="16.48148148148148" x="65.92592592592592" y="0"></rect><rect fill="transparent" class="day" stroke="black" stroke-width="0.5" width="16.48148148148148" height="16.48148148148148" x="65.92592592592592" y="16.48148148148148"></rect><rect fill="transparent" class="day" stroke="black" stroke-width="0.5" width="16.48148148148148" height="16.48148148148148" x="65.92592592592592" y="32.96296296296296"></rect><rect fill="transparent" class="day" stroke="black" stroke-width="0.5" width="16.48148148148148" height="16.48148148148148" x="65.92592592592592" y="49.44444444444444"></rect><rect fill="transparent" class="day" stroke="black" stroke-width="0.5" width="16.48148148148148" height="16.48148148148148" x="65.92592592592592" y="65.92592592592592"></rect><rect fill="transparent" class="day" stroke="black" stroke-width="0.5" width="16.48148148148148" height="16.48148148148148" x="65.92592592592592" y="82.4074074074074"></rect><rect fill="transparent" class="day" stroke="black" stroke-width="0.5" width="16.48148148148148" height="16.48148148148148" x="65.92592592592592" y="98.88888888888889"></rect><rect fill="transparent" class="day" stroke="black" stroke-width="0.5" width="16.48148148148148" height="16.48148148148148" x="82.4074074074074" y="0"></rect><rect fill="transparent" class="day" stroke="black" stroke-width="0.5" width="16.48148148148148" height="16.48148148148148" x="82.4074074074074" y="16.48148148148148"></rect><rect fill="transparent" class="day" stroke="black" stroke-width="0.5" width="16.48148148148148" height="16.48148148148148" x="82.4074074074074" y="32.96296296296296"></rect><rect fill="transparent" class="day" stroke="black" stroke-width="0.5" width="16.48148148148148" height="16.48148148148148" x="82.4074074074074" y="49.44444444444444"></rect><rect fill="transparent" class="day" stroke="black" stroke-width="0.5" width="16.48148148148148" height="16.48148148148148" x="82.4074074074074" y="65.92592592592592"></rect><rect fill="transparent" class="day" stroke="black" stroke-width="0.5" width="16.48148148148148" height="16.48148148148148" x="82.4074074074074" y="82.4074074074074"></rect><rect fill="transparent" class="day" stroke="black" stroke-width="0.5" width="16.48148148148148" height="16.48148148148148" x="82.4074074074074" y="98.88888888888889"></rect><rect fill="transparent" class="day" stroke="black" stroke-width="0.5" width="16.48148148148148" height="16.48148148148148" x="98.88888888888889" y="0"></rect><rect fill="transparent" class="day" stroke="black" stroke-width="0.5" width="16.48148148148148" height="16.48148148148148" x="98.88888888888889" y="16.48148148148148"></rect><rect fill="transparent" class="day" stroke="black" stroke-width="0.5" width="16.48148148148148" height="16.48148148148148" x="98.88888888888889" y="32.96296296296296"></rect><rect fill="transparent" class="day" stroke="black" stroke-width="0.5" width="16.48148148148148" height="16.48148148148148" x="98.88888888888889" y="49.44444444444444"></rect><rect fill="transparent" class="day" stroke="black" stroke-width="0.5" width="16.48148148148148" height="16.48148148148148" x="98.88888888888889" y="65.92592592592592"></rect><rect fill="transparent" class="day" stroke="black" stroke-width="0.5" width="16.48148148148148" height="16.48148148148148" x="98.88888888888889" y="82.4074074074074"></rect><rect fill="transparent" class="day" stroke="black" stroke-width="0.5" width="16.48148148148148" height="16.48148148148148" x="98.88888888888889" y="98.88888888888889"></rect><rect fill="transparent" class="day" stroke="black" stroke-width="0.5" width="16.48148148148148" height="16.48148148148148" x="115.37037037037037" y="0"></rect><rect fill="transparent" class="day" stroke="black" stroke-width="0.5" width="16.48148148148148" height="16.48148148148148" x="115.37037037037037" y="16.48148148148148"></rect><rect fill="transparent" class="day" stroke="black" stroke-width="0.5" width="16.48148148148148" height="16.48148148148148" x="115.37037037037037" y="32.96296296296296"></rect><rect fill="transparent" class="day" stroke="black" stroke-width="0.5" width="16.48148148148148" height="16.48148148148148" x="115.37037037037037" y="49.44444444444444"></rect><rect fill="transparent" class="day" stroke="black" stroke-width="0.5" width="16.48148148148148" height="16.48148148148148" x="115.37037037037037" y="65.92592592592592"></rect><rect fill="transparent" class="day" stroke="black" stroke-width="0.5" width="16.48148148148148" height="16.48148148148148" x="115.37037037037037" y="82.4074074074074"></rect><rect fill="transparent" class="day" stroke="black" stroke-width="0.5" width="16.48148148148148" height="16.48148148148148" x="115.37037037037037" y="98.88888888888889"></rect><rect fill="transparent" class="day" stroke="black" stroke-width="0.5" width="16.48148148148148" height="16.48148148148148" x="131.85185185185185" y="0"></rect><rect fill="transparent" class="day" stroke="black" stroke-width="0.5" width="16.48148148148148" height="16.48148148148148" x="131.85185185185185" y="16.48148148148148"></rect><rect fill="transparent" class="day" stroke="black" stroke-width="0.5" width="16.48148148148148" height="16.48148148148148" x="131.85185185185185" y="32.96296296296296"></rect><rect fill="transparent" class="day" stroke="black" stroke-width="0.5" width="16.48148148148148" height="16.48148148148148" x="131.85185185185185" y="49.44444444444444"></rect><rect fill="transparent" class="day" stroke="black" stroke-width="0.5" width="16.48148148148148" height="16.48148148148148" x="131.85185185185185" y="65.92592592592592"></rect><rect fill="transparent" class="day" stroke="black" stroke-width="0.5" width="16.48148148148148" height="16.48148148148148" x="131.85185185185185" y="82.4074074074074"></rect><rect fill="transparent" class="day" stroke="black" stroke-width="0.5" width="16.48148148148148" height="16.48148148148148" x="131.85185185185185" y="98.88888888888889"></rect><rect fill="transparent" class="day" stroke="black" stroke-width="0.5" width="16.48148148148148" height="16.48148148148148" x="148.33333333333331" y="0"></rect><rect fill="transparent" class="day" stroke="black" stroke-width="0.5" width="16.48148148148148" height="16.48148148148148" x="148.33333333333331" y="16.48148148148148"></rect><rect fill="transparent" class="day" stroke="black" stroke-width="0.5" width="16.48148148148148" height="16.48148148148148" x="148.33333333333331" y="32.96296296296296"></rect><rect fill="transparent" class="day" stroke="black" stroke-width="0.5" width="16.48148148148148" height="16.48148148148148" x="148.33333333333331" y="49.44444444444444"></rect><rect fill="transparent" class="day" stroke="black" stroke-width="0.5" width="16.48148148148148" height="16.48148148148148" x="148.33333333333331" y="65.92592592592592"></rect><rect fill="transparent" class="day" stroke="black" stroke-width="0.5" width="16.48148148148148" height="16.48148148148148" x="148.33333333333331" y="82.4074074074074"></rect><rect fill="transparent" class="day" stroke="black" stroke-width="0.5" width="16.48148148148148" height="16.48148148148148" x="148.33333333333331" y="98.88888888888889"></rect><rect fill="transparent" class="day" stroke="black" stroke-width="0.5" width="16.48148148148148" height="16.48148148148148" x="164.8148148148148" y="0"></rect><rect fill="transparent" class="day" stroke="black" stroke-width="0.5" width="16.48148148148148" height="16.48148148148148" x="164.8148148148148" y="16.48148148148148"></rect><rect fill="transparent" class="day" stroke="black" stroke-width="0.5" width="16.48148148148148" height="16.48148148148148" x="164.8148148148148" y="32.96296296296296"></rect><rect fill="transparent" class="day" stroke="black" stroke-width="0.5" width="16.48148148148148" height="16.48148148148148" x="164.8148148148148" y="49.44444444444444"></rect><rect fill="transparent" class="day" stroke="black" stroke-width="0.5" width="16.48148148148148" height="16.48148148148148" x="164.8148148148148" y="65.92592592592592"></rect><rect fill="transparent" class="day" stroke="black" stroke-width="0.5" width="16.48148148148148" height="16.48148148148148" x="164.8148148148148" y="82.4074074074074"></rect><rect fill="transparent" class="day" stroke="black" stroke-width="0.5" width="16.48148148148148" height="16.48148148148148" x="164.8148148148148" y="98.88888888888889"></rect><rect fill="transparent" class="day" stroke="black" stroke-width="0.5" width="16.48148148148148" height="16.48148148148148" x="181.2962962962963" y="0"></rect><rect fill="transparent" class="day" stroke="black" stroke-width="0.5" width="16.48148148148148" height="16.48148148148148" x="181.2962962962963" y="16.48148148148148"></rect><rect fill="transparent" class="day" stroke="black" stroke-width="0.5" width="16.48148148148148" height="16.48148148148148" x="181.2962962962963" y="32.96296296296296"></rect><rect fill="transparent" class="day" stroke="black" stroke-width="0.5" width="16.48148148148148" height="16.48148148148148" x="181.2962962962963" y="49.44444444444444"></rect><rect fill="transparent" class="day" stroke="black" stroke-width="0.5" width="16.48148148148148" height="16.48148148148148" x="181.2962962962963" y="65.92592592592592"></rect><rect fill="transparent" class="day" stroke="black" stroke-width="0.5" width="16.48148148148148" height="16.48148148148148" x="181.2962962962963" y="82.4074074074074"></rect><rect fill="transparent" class="day" stroke="black" stroke-width="0.5" width="16.48148148148148" height="16.48148148148148" x="181.2962962962963" y="98.88888888888889"></rect><rect fill="transparent" class="day" stroke="black" stroke-width="0.5" width="16.48148148148148" height="16.48148148148148" x="197.77777777777777" y="0"></rect><rect fill="transparent" class="day" stroke="black" stroke-width="0.5" width="16.48148148148148" height="16.48148148148148" x="197.77777777777777" y="16.48148148148148"></rect><rect fill="transparent" class="day" stroke="black" stroke-width="0.5" width="16.48148148148148" height="16.48148148148148" x="197.77777777777777" y="32.96296296296296"></rect><rect fill="transparent" class="day" stroke="black" stroke-width="0.5" width="16.48148148148148" height="16.48148148148148" x="197.77777777777777" y="49.44444444444444"></rect><rect fill="transparent" class="day" stroke="black" stroke-width="0.5" width="16.48148148148148" height="16.48148148148148" x="197.77777777777777" y="65.92592592592592"></rect><rect fill="transparent" class="day" stroke="black" stroke-width="0.5" width="16.48148148148148" height="16.48148148148148" x="197.77777777777777" y="82.4074074074074"></rect><rect fill="transparent" class="day" stroke="black" stroke-width="0.5" width="16.48148148148148" height="16.48148148148148" x="197.77777777777777" y="98.88888888888889"></rect><rect fill="transparent" class="day" stroke="black" stroke-width="0.5" width="16.48148148148148" height="16.48148148148148" x="214.25925925925924" y="0"></rect><rect fill="transparent" class="day" stroke="black" stroke-width="0.5" width="16.48148148148148" height="16.48148148148148" x="214.25925925925924" y="16.48148148148148"></rect><rect fill="transparent" class="day" stroke="black" stroke-width="0.5" width="16.48148148148148" height="16.48148148148148" x="214.25925925925924" y="32.96296296296296"></rect><rect fill="transparent" class="day" stroke="black" stroke-width="0.5" width="16.48148148148148" height="16.48148148148148" x="214.25925925925924" y="49.44444444444444"></rect><rect fill="transparent" class="day" stroke="black" stroke-width="0.5" width="16.48148148148148" height="16.48148148148148" x="214.25925925925924" y="65.92592592592592"></rect><rect fill="transparent" class="day" stroke="black" stroke-width="0.5" width="16.48148148148148" height="16.48148148148148" x="214.25925925925924" y="82.4074074074074"></rect><rect fill="transparent" class="day" stroke="black" stroke-width="0.5" width="16.48148148148148" height="16.48148148148148" x="214.25925925925924" y="98.88888888888889"></rect><rect fill="transparent" class="day" stroke="black" stroke-width="0.5" width="16.48148148148148" height="16.48148148148148" x="230.74074074074073" y="0"></rect><rect fill="transparent" class="day" stroke="black" stroke-width="0.5" width="16.48148148148148" height="16.48148148148148" x="230.74074074074073" y="16.48148148148148"></rect><rect fill="transparent" class="day" stroke="black" stroke-width="0.5" width="16.48148148148148" height="16.48148148148148" x="230.74074074074073" y="32.96296296296296"></rect><rect fill="transparent" class="day" stroke="black" stroke-width="0.5" width="16.48148148148148" height="16.48148148148148" x="230.74074074074073" y="49.44444444444444"></rect><rect fill="transparent" class="day" stroke="black" stroke-width="0.5" width="16.48148148148148" height="16.48148148148148" x="230.74074074074073" y="65.92592592592592"></rect><rect fill="transparent" class="day" stroke="black" stroke-width="0.5" width="16.48148148148148" height="16.48148148148148" x="230.74074074074073" y="82.4074074074074"></rect><rect fill="transparent" class="day" stroke="black" stroke-width="0.5" width="16.48148148148148" height="16.48148148148148" x="230.74074074074073" y="98.88888888888889"></rect><rect fill="transparent" class="day" stroke="black" stroke-width="0.5" width="16.48148148148148" height="16.48148148148148" x="247.22222222222223" y="0"></rect><rect fill="rgb(34, 34, 255)" class="day" stroke="black" stroke-width="0.5" width="16.48148148148148" height="16.48148148148148" x="247.22222222222223" y="16.48148148148148"></rect><rect fill="rgb(34, 34, 255)" class="day" stroke="black" stroke-width="0.5" width="16.48148148148148" height="16.48148148148148" x="247.22222222222223" y="32.96296296296296"></rect><rect fill="rgb(34, 34, 255)" class="day" stroke="black" stroke-width="0.5" width="16.48148148148148" height="16.48148148148148" x="247.22222222222223" y="49.44444444444444"></rect><rect fill="rgb(34, 34, 255)" class="day" stroke="black" stroke-width="0.5" width="16.48148148148148" height="16.48148148148148" x="247.22222222222223" y="65.92592592592592"></rect><rect fill="rgb(34, 34, 255)" class="day" stroke="black" stroke-width="0.5" width="16.48148148148148" height="16.48148148148148" x="247.22222222222223" y="82.4074074074074"></rect><rect fill="rgb(34, 34, 255)" class="day" stroke="black" stroke-width="0.5" width="16.48148148148148" height="16.48148148148148" x="247.22222222222223" y="98.88888888888889"></rect><rect fill="rgb(34, 34, 255)" class="day" stroke="black" stroke-width="0.5" width="16.48148148148148" height="16.48148148148148" x="263.7037037037037" y="0"></rect><rect fill="rgb(34, 34, 255)" class="day" stroke="black" stroke-width="0.5" width="16.48148148148148" height="16.48148148148148" x="263.7037037037037" y="16.48148148148148"></rect><rect fill="rgb(34, 34, 255)" class="day" stroke="black" stroke-width="0.5" width="16.48148148148148" height="16.48148148148148" x="263.7037037037037" y="32.96296296296296"></rect><rect fill="rgb(34, 34, 255)" class="day" stroke="black" stroke-width="0.5" width="16.48148148148148" height="16.48148148148148" x="263.7037037037037" y="49.44444444444444"></rect><rect fill="rgb(34, 34, 255)" class="day" stroke="black" stroke-width="0.5" width="16.48148148148148" height="16.48148148148148" x="263.7037037037037" y="65.92592592592592"></rect><rect fill="rgb(34, 34, 255)" class="day" stroke="black" stroke-width="0.5" width="16.48148148148148" height="16.48148148148148" x="263.7037037037037" y="82.4074074074074"></rect><rect fill="rgb(34, 34, 255)" class="day" stroke="black" stroke-width="0.5" width="16.48148148148148" height="16.48148148148148" x="263.7037037037037" y="98.88888888888889"></rect><rect fill="transparent" class="day" stroke="black" stroke-width="0.5" width="16.48148148148148" height="16.48148148148148" x="280.18518518518516" y="0"></rect><rect fill="rgb(34, 34, 255)" class="day" stroke="black" stroke-width="0.5" width="16.48148148148148" height="16.48148148148148" x="280.18518518518516" y="16.48148148148148"></rect><rect fill="rgb(34, 34, 255)" class="day" stroke="black" stroke-width="0.5" width="16.48148148148148" height="16.48148148148148" x="280.18518518518516" y="32.96296296296296"></rect><rect fill="rgb(34, 34, 255)" class="day" stroke="black" stroke-width="0.5" width="16.48148148148148" height="16.48148148148148" x="280.18518518518516" y="49.44444444444444"></rect><rect fill="rgb(34, 34, 255)" class="day" stroke="black" stroke-width="0.5" width="16.48148148148148" height="16.48148148148148" x="280.18518518518516" y="65.92592592592592"></rect><rect fill="rgb(34, 34, 255)" class="day" stroke="black" stroke-width="0.5" width="16.48148148148148" height="16.48148148148148" x="280.18518518518516" y="82.4074074074074"></rect><rect fill="rgb(34, 34, 255)" class="day" stroke="black" stroke-width="0.5" width="16.48148148148148" height="16.48148148148148" x="280.18518518518516" y="98.88888888888889"></rect><rect fill="rgb(34, 34, 255)" class="day" stroke="black" stroke-width="0.5" width="16.48148148148148" height="16.48148148148148" x="296.66666666666663" y="0"></rect><rect fill="rgb(34, 34, 255)" class="day" stroke="black" stroke-width="0.5" width="16.48148148148148" height="16.48148148148148" x="296.66666666666663" y="16.48148148148148"></rect><rect fill="rgb(34, 34, 255)" class="day" stroke="black" stroke-width="0.5" width="16.48148148148148" height="16.48148148148148" x="296.66666666666663" y="32.96296296296296"></rect><rect fill="rgb(34, 34, 255)" class="day" stroke="black" stroke-width="0.5" width="16.48148148148148" height="16.48148148148148" x="296.66666666666663" y="49.44444444444444"></rect><rect fill="rgb(34, 34, 255)" class="day" stroke="black" stroke-width="0.5" width="16.48148148148148" height="16.48148148148148" x="296.66666666666663" y="65.92592592592592"></rect><rect fill="rgb(34, 34, 255)" class="day" stroke="black" stroke-width="0.5" width="16.48148148148148" height="16.48148148148148" x="296.66666666666663" y="82.4074074074074"></rect><rect fill="rgb(34, 34, 255)" class="day" stroke="black" stroke-width="0.5" width="16.48148148148148" height="16.48148148148148" x="296.66666666666663" y="98.88888888888889"></rect><rect fill="rgb(34, 34, 255)" class="day" stroke="black" stroke-width="0.5" width="16.48148148148148" height="16.48148148148148" x="313.14814814814815" y="0"></rect><rect fill="rgb(34, 34, 255)" class="day" stroke="black" stroke-width="0.5" width="16.48148148148148" height="16.48148148148148" x="313.14814814814815" y="16.48148148148148"></rect><rect fill="rgb(34, 34, 255)" class="day" stroke="black" stroke-width="0.5" width="16.48148148148148" height="16.48148148148148" x="313.14814814814815" y="32.96296296296296"></rect><rect fill="rgb(34, 34, 255)" class="day" stroke="black" stroke-width="0.5" width="16.48148148148148" height="16.48148148148148" x="313.14814814814815" y="49.44444444444444"></rect><rect fill="rgb(34, 34, 255)" class="day" stroke="black" stroke-width="0.5" width="16.48148148148148" height="16.48148148148148" x="313.14814814814815" y="65.92592592592592"></rect><rect fill="rgb(34, 34, 255)" class="day" stroke="black" stroke-width="0.5" width="16.48148148148148" height="16.48148148148148" x="313.14814814814815" y="82.4074074074074"></rect><rect fill="rgb(34, 34, 255)" class="day" stroke="black" stroke-width="0.5" width="16.48148148148148" height="16.48148148148148" x="313.14814814814815" y="98.88888888888889"></rect><rect fill="transparent" class="day" stroke="black" stroke-width="0.5" width="16.48148148148148" height="16.48148148148148" x="329.6296296296296" y="0"></rect><rect fill="transparent" class="day" stroke="black" stroke-width="0.5" width="16.48148148148148" height="16.48148148148148" x="329.6296296296296" y="16.48148148148148"></rect><rect fill="transparent" class="day" stroke="black" stroke-width="0.5" width="16.48148148148148" height="16.48148148148148" x="329.6296296296296" y="32.96296296296296"></rect><rect fill="transparent" class="day" stroke="black" stroke-width="0.5" width="16.48148148148148" height="16.48148148148148" x="329.6296296296296" y="49.44444444444444"></rect><rect fill="transparent" class="day" stroke="black" stroke-width="0.5" width="16.48148148148148" height="16.48148148148148" x="329.6296296296296" y="65.92592592592592"></rect><rect fill="transparent" class="day" stroke="black" stroke-width="0.5" width="16.48148148148148" height="16.48148148148148" x="329.6296296296296" y="82.4074074074074"></rect><rect fill="transparent" class="day" stroke="black" stroke-width="0.5" width="16.48148148148148" height="16.48148148148148" x="329.6296296296296" y="98.88888888888889"></rect><rect fill="transparent" class="day" stroke="black" stroke-width="0.5" width="16.48148148148148" height="16.48148148148148" x="346.1111111111111" y="0"></rect><rect fill="transparent" class="day" stroke="black" stroke-width="0.5" width="16.48148148148148" height="16.48148148148148" x="346.1111111111111" y="16.48148148148148"></rect><rect fill="transparent" class="day" stroke="black" stroke-width="0.5" width="16.48148148148148" height="16.48148148148148" x="346.1111111111111" y="32.96296296296296"></rect><rect fill="transparent" class="day" stroke="black" stroke-width="0.5" width="16.48148148148148" height="16.48148148148148" x="346.1111111111111" y="49.44444444444444"></rect><rect fill="transparent" class="day" stroke="black" stroke-width="0.5" width="16.48148148148148" height="16.48148148148148" x="346.1111111111111" y="65.92592592592592"></rect><rect fill="transparent" class="day" stroke="black" stroke-width="0.5" width="16.48148148148148" height="16.48148148148148" x="346.1111111111111" y="82.4074074074074"></rect><rect fill="transparent" class="day" stroke="black" stroke-width="0.5" width="16.48148148148148" height="16.48148148148148" x="346.1111111111111" y="98.88888888888889"></rect><rect fill="transparent" class="day" stroke="black" stroke-width="0.5" width="16.48148148148148" height="16.48148148148148" x="362.5925925925926" y="0"></rect><rect fill="transparent" class="day" stroke="black" stroke-width="0.5" width="16.48148148148148" height="16.48148148148148" x="362.5925925925926" y="16.48148148148148"></rect><rect fill="transparent" class="day" stroke="black" stroke-width="0.5" width="16.48148148148148" height="16.48148148148148" x="362.5925925925926" y="32.96296296296296"></rect><rect fill="transparent" class="day" stroke="black" stroke-width="0.5" width="16.48148148148148" height="16.48148148148148" x="362.5925925925926" y="49.44444444444444"></rect><rect fill="transparent" class="day" stroke="black" stroke-width="0.5" width="16.48148148148148" height="16.48148148148148" x="362.5925925925926" y="65.92592592592592"></rect><rect fill="transparent" class="day" stroke="black" stroke-width="0.5" width="16.48148148148148" height="16.48148148148148" x="362.5925925925926" y="82.4074074074074"></rect><rect fill="transparent" class="day" stroke="black" stroke-width="0.5" width="16.48148148148148" height="16.48148148148148" x="362.5925925925926" y="98.88888888888889"></rect><rect fill="transparent" class="day" stroke="black" stroke-width="0.5" width="16.48148148148148" height="16.48148148148148" x="379.0740740740741" y="0"></rect><rect fill="transparent" class="day" stroke="black" stroke-width="0.5" width="16.48148148148148" height="16.48148148148148" x="379.0740740740741" y="16.48148148148148"></rect><rect fill="transparent" class="day" stroke="black" stroke-width="0.5" width="16.48148148148148" height="16.48148148148148" x="379.0740740740741" y="32.96296296296296"></rect><rect fill="transparent" class="day" stroke="black" stroke-width="0.5" width="16.48148148148148" height="16.48148148148148" x="379.0740740740741" y="49.44444444444444"></rect><rect fill="transparent" class="day" stroke="black" stroke-width="0.5" width="16.48148148148148" height="16.48148148148148" x="379.0740740740741" y="65.92592592592592"></rect><rect fill="transparent" class="day" stroke="black" stroke-width="0.5" width="16.48148148148148" height="16.48148148148148" x="379.0740740740741" y="82.4074074074074"></rect><rect fill="transparent" class="day" stroke="black" stroke-width="0.5" width="16.48148148148148" height="16.48148148148148" x="379.0740740740741" y="98.88888888888889"></rect><rect fill="transparent" class="day" stroke="black" stroke-width="0.5" width="16.48148148148148" height="16.48148148148148" x="395.55555555555554" y="0"></rect><rect fill="transparent" class="day" stroke="black" stroke-width="0.5" width="16.48148148148148" height="16.48148148148148" x="395.55555555555554" y="16.48148148148148"></rect><rect fill="transparent" class="day" stroke="black" stroke-width="0.5" width="16.48148148148148" height="16.48148148148148" x="395.55555555555554" y="32.96296296296296"></rect><rect fill="transparent" class="day" stroke="black" stroke-width="0.5" width="16.48148148148148" height="16.48148148148148" x="395.55555555555554" y="49.44444444444444"></rect><rect fill="transparent" class="day" stroke="black" stroke-width="0.5" width="16.48148148148148" height="16.48148148148148" x="395.55555555555554" y="65.92592592592592"></rect><rect fill="transparent" class="day" stroke="black" stroke-width="0.5" width="16.48148148148148" height="16.48148148148148" x="395.55555555555554" y="82.4074074074074"></rect><rect fill="transparent" class="day" stroke="black" stroke-width="0.5" width="16.48148148148148" height="16.48148148148148" x="395.55555555555554" y="98.88888888888889"></rect><rect fill="transparent" class="day" stroke="black" stroke-width="0.5" width="16.48148148148148" height="16.48148148148148" x="412.037037037037" y="0"></rect><rect fill="transparent" class="day" stroke="black" stroke-width="0.5" width="16.48148148148148" height="16.48148148148148" x="412.037037037037" y="16.48148148148148"></rect><rect fill="transparent" class="day" stroke="black" stroke-width="0.5" width="16.48148148148148" height="16.48148148148148" x="412.037037037037" y="32.96296296296296"></rect><rect fill="transparent" class="day" stroke="black" stroke-width="0.5" width="16.48148148148148" height="16.48148148148148" x="412.037037037037" y="49.44444444444444"></rect><rect fill="transparent" class="day" stroke="black" stroke-width="0.5" width="16.48148148148148" height="16.48148148148148" x="412.037037037037" y="65.92592592592592"></rect><rect fill="transparent" class="day" stroke="black" stroke-width="0.5" width="16.48148148148148" height="16.48148148148148" x="412.037037037037" y="82.4074074074074"></rect><rect fill="transparent" class="day" stroke="black" stroke-width="0.5" width="16.48148148148148" height="16.48148148148148" x="412.037037037037" y="98.88888888888889"></rect><rect fill="transparent" class="day" stroke="black" stroke-width="0.5" width="16.48148148148148" height="16.48148148148148" x="428.5185185185185" y="0"></rect><rect fill="transparent" class="day" stroke="black" stroke-width="0.5" width="16.48148148148148" height="16.48148148148148" x="428.5185185185185" y="16.48148148148148"></rect><rect fill="transparent" class="day" stroke="black" stroke-width="0.5" width="16.48148148148148" height="16.48148148148148" x="428.5185185185185" y="32.96296296296296"></rect><rect fill="transparent" class="day" stroke="black" stroke-width="0.5" width="16.48148148148148" height="16.48148148148148" x="428.5185185185185" y="49.44444444444444"></rect><rect fill="transparent" class="day" stroke="black" stroke-width="0.5" width="16.48148148148148" height="16.48148148148148" x="428.5185185185185" y="65.92592592592592"></rect><rect fill="transparent" class="day" stroke="black" stroke-width="0.5" width="16.48148148148148" height="16.48148148148148" x="428.5185185185185" y="82.4074074074074"></rect><rect fill="transparent" class="day" stroke="black" stroke-width="0.5" width="16.48148148148148" height="16.48148148148148" x="428.5185185185185" y="98.88888888888889"></rect><rect fill="transparent" class="day" stroke="black" stroke-width="0.5" width="16.48148148148148" height="16.48148148148148" x="445" y="0"></rect><rect fill="transparent" class="day" stroke="black" stroke-width="0.5" width="16.48148148148148" height="16.48148148148148" x="445" y="16.48148148148148"></rect><rect fill="transparent" class="day" stroke="black" stroke-width="0.5" width="16.48148148148148" height="16.48148148148148" x="445" y="32.96296296296296"></rect><rect fill="transparent" class="day" stroke="black" stroke-width="0.5" width="16.48148148148148" height="16.48148148148148" x="445" y="49.44444444444444"></rect><rect fill="transparent" class="day" stroke="black" stroke-width="0.5" width="16.48148148148148" height="16.48148148148148" x="445" y="65.92592592592592"></rect><rect fill="transparent" class="day" stroke="black" stroke-width="0.5" width="16.48148148148148" height="16.48148148148148" x="445" y="82.4074074074074"></rect><rect fill="transparent" class="day" stroke="black" stroke-width="0.5" width="16.48148148148148" height="16.48148148148148" x="445" y="98.88888888888889"></rect><rect fill="transparent" class="day" stroke="black" stroke-width="0.5" width="16.48148148148148" height="16.48148148148148" x="461.48148148148147" y="0"></rect><rect fill="transparent" class="day" stroke="black" stroke-width="0.5" width="16.48148148148148" height="16.48148148148148" x="461.48148148148147" y="16.48148148148148"></rect><rect fill="transparent" class="day" stroke="black" stroke-width="0.5" width="16.48148148148148" height="16.48148148148148" x="461.48148148148147" y="32.96296296296296"></rect><rect fill="transparent" class="day" stroke="black" stroke-width="0.5" width="16.48148148148148" height="16.48148148148148" x="461.48148148148147" y="49.44444444444444"></rect><rect fill="transparent" class="day" stroke="black" stroke-width="0.5" width="16.48148148148148" height="16.48148148148148" x="461.48148148148147" y="65.92592592592592"></rect><rect fill="transparent" class="day" stroke="black" stroke-width="0.5" width="16.48148148148148" height="16.48148148148148" x="461.48148148148147" y="82.4074074074074"></rect><rect fill="transparent" class="day" stroke="black" stroke-width="0.5" width="16.48148148148148" height="16.48148148148148" x="461.48148148148147" y="98.88888888888889"></rect><rect fill="transparent" class="day" stroke="black" stroke-width="0.5" width="16.48148148148148" height="16.48148148148148" x="477.96296296296293" y="0"></rect><rect fill="transparent" class="day" stroke="black" stroke-width="0.5" width="16.48148148148148" height="16.48148148148148" x="477.96296296296293" y="16.48148148148148"></rect><rect fill="transparent" class="day" stroke="black" stroke-width="0.5" width="16.48148148148148" height="16.48148148148148" x="477.96296296296293" y="32.96296296296296"></rect><rect fill="transparent" class="day" stroke="black" stroke-width="0.5" width="16.48148148148148" height="16.48148148148148" x="477.96296296296293" y="49.44444444444444"></rect><rect fill="transparent" class="day" stroke="black" stroke-width="0.5" width="16.48148148148148" height="16.48148148148148" x="477.96296296296293" y="65.92592592592592"></rect><rect fill="transparent" class="day" stroke="black" stroke-width="0.5" width="16.48148148148148" height="16.48148148148148" x="477.96296296296293" y="82.4074074074074"></rect><rect fill="transparent" class="day" stroke="black" stroke-width="0.5" width="16.48148148148148" height="16.48148148148148" x="477.96296296296293" y="98.88888888888889"></rect><rect fill="transparent" class="day" stroke="black" stroke-width="0.5" width="16.48148148148148" height="16.48148148148148" x="494.44444444444446" y="0"></rect><rect fill="transparent" class="day" stroke="black" stroke-width="0.5" width="16.48148148148148" height="16.48148148148148" x="494.44444444444446" y="16.48148148148148"></rect><rect fill="transparent" class="day" stroke="black" stroke-width="0.5" width="16.48148148148148" height="16.48148148148148" x="494.44444444444446" y="32.96296296296296"></rect><rect fill="transparent" class="day" stroke="black" stroke-width="0.5" width="16.48148148148148" height="16.48148148148148" x="494.44444444444446" y="49.44444444444444"></rect><rect fill="transparent" class="day" stroke="black" stroke-width="0.5" width="16.48148148148148" height="16.48148148148148" x="494.44444444444446" y="65.92592592592592"></rect><rect fill="transparent" class="day" stroke="black" stroke-width="0.5" width="16.48148148148148" height="16.48148148148148" x="494.44444444444446" y="82.4074074074074"></rect><rect fill="transparent" class="day" stroke="black" stroke-width="0.5" width="16.48148148148148" height="16.48148148148148" x="494.44444444444446" y="98.88888888888889"></rect><rect fill="transparent" class="day" stroke="black" stroke-width="0.5" width="16.48148148148148" height="16.48148148148148" x="510.9259259259259" y="0"></rect><rect fill="transparent" class="day" stroke="black" stroke-width="0.5" width="16.48148148148148" height="16.48148148148148" x="510.9259259259259" y="16.48148148148148"></rect><rect fill="transparent" class="day" stroke="black" stroke-width="0.5" width="16.48148148148148" height="16.48148148148148" x="510.9259259259259" y="32.96296296296296"></rect><rect fill="transparent" class="day" stroke="black" stroke-width="0.5" width="16.48148148148148" height="16.48148148148148" x="510.9259259259259" y="49.44444444444444"></rect><rect fill="transparent" class="day" stroke="black" stroke-width="0.5" width="16.48148148148148" height="16.48148148148148" x="510.9259259259259" y="65.92592592592592"></rect><rect fill="transparent" class="day" stroke="black" stroke-width="0.5" width="16.48148148148148" height="16.48148148148148" x="510.9259259259259" y="82.4074074074074"></rect><rect fill="transparent" class="day" stroke="black" stroke-width="0.5" width="16.48148148148148" height="16.48148148148148" x="510.9259259259259" y="98.88888888888889"></rect><rect fill="transparent" class="day" stroke="black" stroke-width="0.5" width="16.48148148148148" height="16.48148148148148" x="527.4074074074074" y="0"></rect><rect fill="transparent" class="day" stroke="black" stroke-width="0.5" width="16.48148148148148" height="16.48148148148148" x="527.4074074074074" y="16.48148148148148"></rect><rect fill="transparent" class="day" stroke="black" stroke-width="0.5" width="16.48148148148148" height="16.48148148148148" x="527.4074074074074" y="32.96296296296296"></rect><rect fill="transparent" class="day" stroke="black" stroke-width="0.5" width="16.48148148148148" height="16.48148148148148" x="527.4074074074074" y="49.44444444444444"></rect><rect fill="transparent" class="day" stroke="black" stroke-width="0.5" width="16.48148148148148" height="16.48148148148148" x="527.4074074074074" y="65.92592592592592"></rect><rect fill="transparent" class="day" stroke="black" stroke-width="0.5" width="16.48148148148148" height="16.48148148148148" x="527.4074074074074" y="82.4074074074074"></rect><rect fill="transparent" class="day" stroke="black" stroke-width="0.5" width="16.48148148148148" height="16.48148148148148" x="527.4074074074074" y="98.88888888888889"></rect><rect fill="transparent" class="day" stroke="black" stroke-width="0.5" width="16.48148148148148" height="16.48148148148148" x="543.8888888888889" y="0"></rect><rect fill="transparent" class="day" stroke="black" stroke-width="0.5" width="16.48148148148148" height="16.48148148148148" x="543.8888888888889" y="16.48148148148148"></rect><rect fill="transparent" class="day" stroke="black" stroke-width="0.5" width="16.48148148148148" height="16.48148148148148" x="543.8888888888889" y="32.96296296296296"></rect><rect fill="transparent" class="day" stroke="black" stroke-width="0.5" width="16.48148148148148" height="16.48148148148148" x="543.8888888888889" y="49.44444444444444"></rect><rect fill="transparent" class="day" stroke="black" stroke-width="0.5" width="16.48148148148148" height="16.48148148148148" x="543.8888888888889" y="65.92592592592592"></rect><rect fill="transparent" class="day" stroke="black" stroke-width="0.5" width="16.48148148148148" height="16.48148148148148" x="543.8888888888889" y="82.4074074074074"></rect><rect fill="transparent" class="day" stroke="black" stroke-width="0.5" width="16.48148148148148" height="16.48148148148148" x="543.8888888888889" y="98.88888888888889"></rect><rect fill="transparent" class="day" stroke="black" stroke-width="0.5" width="16.48148148148148" height="16.48148148148148" x="560.3703703703703" y="0"></rect><rect fill="transparent" class="day" stroke="black" stroke-width="0.5" width="16.48148148148148" height="16.48148148148148" x="560.3703703703703" y="16.48148148148148"></rect><rect fill="transparent" class="day" stroke="black" stroke-width="0.5" width="16.48148148148148" height="16.48148148148148" x="560.3703703703703" y="32.96296296296296"></rect><rect fill="transparent" class="day" stroke="black" stroke-width="0.5" width="16.48148148148148" height="16.48148148148148" x="560.3703703703703" y="49.44444444444444"></rect><rect fill="transparent" class="day" stroke="black" stroke-width="0.5" width="16.48148148148148" height="16.48148148148148" x="560.3703703703703" y="65.92592592592592"></rect><rect fill="transparent" class="day" stroke="black" stroke-width="0.5" width="16.48148148148148" height="16.48148148148148" x="560.3703703703703" y="82.4074074074074"></rect><rect fill="transparent" class="day" stroke="black" stroke-width="0.5" width="16.48148148148148" height="16.48148148148148" x="560.3703703703703" y="98.88888888888889"></rect><rect fill="transparent" class="day" stroke="black" stroke-width="0.5" width="16.48148148148148" height="16.48148148148148" x="576.8518518518518" y="0"></rect><rect fill="transparent" class="day" stroke="black" stroke-width="0.5" width="16.48148148148148" height="16.48148148148148" x="576.8518518518518" y="16.48148148148148"></rect><rect fill="transparent" class="day" stroke="black" stroke-width="0.5" width="16.48148148148148" height="16.48148148148148" x="576.8518518518518" y="32.96296296296296"></rect><rect fill="transparent" class="day" stroke="black" stroke-width="0.5" width="16.48148148148148" height="16.48148148148148" x="576.8518518518518" y="49.44444444444444"></rect><rect fill="transparent" class="day" stroke="black" stroke-width="0.5" width="16.48148148148148" height="16.48148148148148" x="576.8518518518518" y="65.92592592592592"></rect><rect fill="transparent" class="day" stroke="black" stroke-width="0.5" width="16.48148148148148" height="16.48148148148148" x="576.8518518518518" y="82.4074074074074"></rect><rect fill="transparent" class="day" stroke="black" stroke-width="0.5" width="16.48148148148148" height="16.48148148148148" x="576.8518518518518" y="98.88888888888889"></rect><rect fill="transparent" class="day" stroke="black" stroke-width="0.5" width="16.48148148148148" height="16.48148148148148" x="593.3333333333333" y="0"></rect><rect fill="transparent" class="day" stroke="black" stroke-width="0.5" width="16.48148148148148" height="16.48148148148148" x="593.3333333333333" y="16.48148148148148"></rect><rect fill="rgb(34, 34, 255)" class="day" stroke="black" stroke-width="0.5" width="16.48148148148148" height="16.48148148148148" x="593.3333333333333" y="32.96296296296296"></rect><rect fill="transparent" class="day" stroke="black" stroke-width="0.5" width="16.48148148148148" height="16.48148148148148" x="593.3333333333333" y="49.44444444444444"></rect><rect fill="transparent" class="day" stroke="black" stroke-width="0.5" width="16.48148148148148" height="16.48148148148148" x="593.3333333333333" y="65.92592592592592"></rect><rect fill="transparent" class="day" stroke="black" stroke-width="0.5" width="16.48148148148148" height="16.48148148148148" x="593.3333333333333" y="82.4074074074074"></rect><rect fill="transparent" class="day" stroke="black" stroke-width="0.5" width="16.48148148148148" height="16.48148148148148" x="593.3333333333333" y="98.88888888888889"></rect><rect fill="transparent" class="day" stroke="black" stroke-width="0.5" width="16.48148148148148" height="16.48148148148148" x="609.8148148148148" y="0"></rect><rect fill="transparent" class="day" stroke="black" stroke-width="0.5" width="16.48148148148148" height="16.48148148148148" x="609.8148148148148" y="16.48148148148148"></rect><rect fill="transparent" class="day" stroke="black" stroke-width="0.5" width="16.48148148148148" height="16.48148148148148" x="609.8148148148148" y="32.96296296296296"></rect><rect fill="transparent" class="day" stroke="black" stroke-width="0.5" width="16.48148148148148" height="16.48148148148148" x="609.8148148148148" y="49.44444444444444"></rect><rect fill="transparent" class="day" stroke="black" stroke-width="0.5" width="16.48148148148148" height="16.48148148148148" x="609.8148148148148" y="65.92592592592592"></rect><rect fill="transparent" class="day" stroke="black" stroke-width="0.5" width="16.48148148148148" height="16.48148148148148" x="609.8148148148148" y="82.4074074074074"></rect><rect fill="transparent" class="day" stroke="black" stroke-width="0.5" width="16.48148148148148" height="16.48148148148148" x="609.8148148148148" y="98.88888888888889"></rect><rect fill="transparent" class="day" stroke="black" stroke-width="0.5" width="16.48148148148148" height="16.48148148148148" x="626.2962962962963" y="0"></rect><rect fill="transparent" class="day" stroke="black" stroke-width="0.5" width="16.48148148148148" height="16.48148148148148" x="626.2962962962963" y="16.48148148148148"></rect><rect fill="transparent" class="day" stroke="black" stroke-width="0.5" width="16.48148148148148" height="16.48148148148148" x="626.2962962962963" y="32.96296296296296"></rect><rect fill="transparent" class="day" stroke="black" stroke-width="0.5" width="16.48148148148148" height="16.48148148148148" x="626.2962962962963" y="49.44444444444444"></rect><rect fill="transparent" class="day" stroke="black" stroke-width="0.5" width="16.48148148148148" height="16.48148148148148" x="626.2962962962963" y="65.92592592592592"></rect><rect fill="transparent" class="day" stroke="black" stroke-width="0.5" width="16.48148148148148" height="16.48148148148148" x="626.2962962962963" y="82.4074074074074"></rect><rect fill="transparent" class="day" stroke="black" stroke-width="0.5" width="16.48148148148148" height="16.48148148148148" x="626.2962962962963" y="98.88888888888889"></rect><rect fill="transparent" class="day" stroke="black" stroke-width="0.5" width="16.48148148148148" height="16.48148148148148" x="642.7777777777777" y="0"></rect><rect fill="transparent" class="day" stroke="black" stroke-width="0.5" width="16.48148148148148" height="16.48148148148148" x="642.7777777777777" y="16.48148148148148"></rect><rect fill="transparent" class="day" stroke="black" stroke-width="0.5" width="16.48148148148148" height="16.48148148148148" x="642.7777777777777" y="32.96296296296296"></rect><rect fill="transparent" class="day" stroke="black" stroke-width="0.5" width="16.48148148148148" height="16.48148148148148" x="642.7777777777777" y="49.44444444444444"></rect><rect fill="transparent" class="day" stroke="black" stroke-width="0.5" width="16.48148148148148" height="16.48148148148148" x="642.7777777777777" y="65.92592592592592"></rect><rect fill="transparent" class="day" stroke="black" stroke-width="0.5" width="16.48148148148148" height="16.48148148148148" x="642.7777777777777" y="82.4074074074074"></rect><rect fill="transparent" class="day" stroke="black" stroke-width="0.5" width="16.48148148148148" height="16.48148148148148" x="642.7777777777777" y="98.88888888888889"></rect><rect fill="transparent" class="day" stroke="black" stroke-width="0.5" width="16.48148148148148" height="16.48148148148148" x="659.2592592592592" y="0"></rect><rect fill="transparent" class="day" stroke="black" stroke-width="0.5" width="16.48148148148148" height="16.48148148148148" x="659.2592592592592" y="16.48148148148148"></rect><rect fill="transparent" class="day" stroke="black" stroke-width="0.5" width="16.48148148148148" height="16.48148148148148" x="659.2592592592592" y="32.96296296296296"></rect><rect fill="transparent" class="day" stroke="black" stroke-width="0.5" width="16.48148148148148" height="16.48148148148148" x="659.2592592592592" y="49.44444444444444"></rect><rect fill="transparent" class="day" stroke="black" stroke-width="0.5" width="16.48148148148148" height="16.48148148148148" x="659.2592592592592" y="65.92592592592592"></rect><rect fill="transparent" class="day" stroke="black" stroke-width="0.5" width="16.48148148148148" height="16.48148148148148" x="659.2592592592592" y="82.4074074074074"></rect><rect fill="transparent" class="day" stroke="black" stroke-width="0.5" width="16.48148148148148" height="16.48148148148148" x="659.2592592592592" y="98.88888888888889"></rect><rect fill="transparent" class="day" stroke="black" stroke-width="0.5" width="16.48148148148148" height="16.48148148148148" x="675.7407407407408" y="0"></rect><rect fill="transparent" class="day" stroke="black" stroke-width="0.5" width="16.48148148148148" height="16.48148148148148" x="675.7407407407408" y="16.48148148148148"></rect><rect fill="transparent" class="day" stroke="black" stroke-width="0.5" width="16.48148148148148" height="16.48148148148148" x="675.7407407407408" y="32.96296296296296"></rect><rect fill="transparent" class="day" stroke="black" stroke-width="0.5" width="16.48148148148148" height="16.48148148148148" x="675.7407407407408" y="49.44444444444444"></rect><rect fill="transparent" class="day" stroke="black" stroke-width="0.5" width="16.48148148148148" height="16.48148148148148" x="675.7407407407408" y="65.92592592592592"></rect><rect fill="transparent" class="day" stroke="black" stroke-width="0.5" width="16.48148148148148" height="16.48148148148148" x="675.7407407407408" y="82.4074074074074"></rect><rect fill="transparent" class="day" stroke="black" stroke-width="0.5" width="16.48148148148148" height="16.48148148148148" x="675.7407407407408" y="98.88888888888889"></rect><rect fill="transparent" class="day" stroke="black" stroke-width="0.5" width="16.48148148148148" height="16.48148148148148" x="692.2222222222222" y="0"></rect><rect fill="transparent" class="day" stroke="black" stroke-width="0.5" width="16.48148148148148" height="16.48148148148148" x="692.2222222222222" y="16.48148148148148"></rect><rect fill="transparent" class="day" stroke="black" stroke-width="0.5" width="16.48148148148148" height="16.48148148148148" x="692.2222222222222" y="32.96296296296296"></rect><rect fill="transparent" class="day" stroke="black" stroke-width="0.5" width="16.48148148148148" height="16.48148148148148" x="692.2222222222222" y="49.44444444444444"></rect><rect fill="transparent" class="day" stroke="black" stroke-width="0.5" width="16.48148148148148" height="16.48148148148148" x="692.2222222222222" y="65.92592592592592"></rect><rect fill="transparent" class="day" stroke="black" stroke-width="0.5" width="16.48148148148148" height="16.48148148148148" x="692.2222222222222" y="82.4074074074074"></rect><rect fill="transparent" class="day" stroke="black" stroke-width="0.5" width="16.48148148148148" height="16.48148148148148" x="692.2222222222222" y="98.88888888888889"></rect><rect fill="transparent" class="day" stroke="black" stroke-width="0.5" width="16.48148148148148" height="16.48148148148148" x="708.7037037037037" y="0"></rect><rect fill="transparent" class="day" stroke="black" stroke-width="0.5" width="16.48148148148148" height="16.48148148148148" x="708.7037037037037" y="16.48148148148148"></rect><rect fill="transparent" class="day" stroke="black" stroke-width="0.5" width="16.48148148148148" height="16.48148148148148" x="708.7037037037037" y="32.96296296296296"></rect><rect fill="transparent" class="day" stroke="black" stroke-width="0.5" width="16.48148148148148" height="16.48148148148148" x="708.7037037037037" y="49.44444444444444"></rect><rect fill="transparent" class="day" stroke="black" stroke-width="0.5" width="16.48148148148148" height="16.48148148148148" x="708.7037037037037" y="65.92592592592592"></rect><rect fill="transparent" class="day" stroke="black" stroke-width="0.5" width="16.48148148148148" height="16.48148148148148" x="708.7037037037037" y="82.4074074074074"></rect><rect fill="transparent" class="day" stroke="black" stroke-width="0.5" width="16.48148148148148" height="16.48148148148148" x="708.7037037037037" y="98.88888888888889"></rect><rect fill="transparent" class="day" stroke="black" stroke-width="0.5" width="16.48148148148148" height="16.48148148148148" x="725.1851851851852" y="0"></rect><rect fill="transparent" class="day" stroke="black" stroke-width="0.5" width="16.48148148148148" height="16.48148148148148" x="725.1851851851852" y="16.48148148148148"></rect><rect fill="transparent" class="day" stroke="black" stroke-width="0.5" width="16.48148148148148" height="16.48148148148148" x="725.1851851851852" y="32.96296296296296"></rect><rect fill="transparent" class="day" stroke="black" stroke-width="0.5" width="16.48148148148148" height="16.48148148148148" x="725.1851851851852" y="49.44444444444444"></rect><rect fill="transparent" class="day" stroke="black" stroke-width="0.5" width="16.48148148148148" height="16.48148148148148" x="725.1851851851852" y="65.92592592592592"></rect><rect fill="transparent" class="day" stroke="black" stroke-width="0.5" width="16.48148148148148" height="16.48148148148148" x="725.1851851851852" y="82.4074074074074"></rect><rect fill="transparent" class="day" stroke="black" stroke-width="0.5" width="16.48148148148148" height="16.48148148148148" x="725.1851851851852" y="98.88888888888889"></rect><rect fill="transparent" class="day" stroke="black" stroke-width="0.5" width="16.48148148148148" height="16.48148148148148" x="741.6666666666666" y="0"></rect><rect fill="transparent" class="day" stroke="black" stroke-width="0.5" width="16.48148148148148" height="16.48148148148148" x="741.6666666666666" y="16.48148148148148"></rect><rect fill="transparent" class="day" stroke="black" stroke-width="0.5" width="16.48148148148148" height="16.48148148148148" x="741.6666666666666" y="32.96296296296296"></rect><rect fill="transparent" class="day" stroke="black" stroke-width="0.5" width="16.48148148148148" height="16.48148148148148" x="741.6666666666666" y="49.44444444444444"></rect><rect fill="transparent" class="day" stroke="black" stroke-width="0.5" width="16.48148148148148" height="16.48148148148148" x="741.6666666666666" y="65.92592592592592"></rect><rect fill="transparent" class="day" stroke="black" stroke-width="0.5" width="16.48148148148148" height="16.48148148148148" x="741.6666666666666" y="82.4074074074074"></rect><rect fill="transparent" class="day" stroke="black" stroke-width="0.5" width="16.48148148148148" height="16.48148148148148" x="741.6666666666666" y="98.88888888888889"></rect><rect fill="transparent" class="day" stroke="black" stroke-width="0.5" width="16.48148148148148" height="16.48148148148148" x="758.1481481481482" y="0"></rect><rect fill="transparent" class="day" stroke="black" stroke-width="0.5" width="16.48148148148148" height="16.48148148148148" x="758.1481481481482" y="16.48148148148148"></rect><rect fill="transparent" class="day" stroke="black" stroke-width="0.5" width="16.48148148148148" height="16.48148148148148" x="758.1481481481482" y="32.96296296296296"></rect><rect fill="transparent" class="day" stroke="black" stroke-width="0.5" width="16.48148148148148" height="16.48148148148148" x="758.1481481481482" y="49.44444444444444"></rect><rect fill="transparent" class="day" stroke="black" stroke-width="0.5" width="16.48148148148148" height="16.48148148148148" x="758.1481481481482" y="65.92592592592592"></rect><rect fill="transparent" class="day" stroke="black" stroke-width="0.5" width="16.48148148148148" height="16.48148148148148" x="758.1481481481482" y="82.4074074074074"></rect><rect fill="transparent" class="day" stroke="black" stroke-width="0.5" width="16.48148148148148" height="16.48148148148148" x="758.1481481481482" y="98.88888888888889"></rect><rect fill="transparent" class="day" stroke="black" stroke-width="0.5" width="16.48148148148148" height="16.48148148148148" x="774.6296296296296" y="0"></rect><rect fill="transparent" class="day" stroke="black" stroke-width="0.5" width="16.48148148148148" height="16.48148148148148" x="774.6296296296296" y="16.48148148148148"></rect><rect fill="transparent" class="day" stroke="black" stroke-width="0.5" width="16.48148148148148" height="16.48148148148148" x="774.6296296296296" y="32.96296296296296"></rect><rect fill="transparent" class="day" stroke="black" stroke-width="0.5" width="16.48148148148148" height="16.48148148148148" x="774.6296296296296" y="49.44444444444444"></rect><rect fill="transparent" class="day" stroke="black" stroke-width="0.5" width="16.48148148148148" height="16.48148148148148" x="774.6296296296296" y="65.92592592592592"></rect><rect fill="transparent" class="day" stroke="black" stroke-width="0.5" width="16.48148148148148" height="16.48148148148148" x="774.6296296296296" y="82.4074074074074"></rect><rect fill="transparent" class="day" stroke="black" stroke-width="0.5" width="16.48148148148148" height="16.48148148148148" x="774.6296296296296" y="98.88888888888889"></rect><rect fill="transparent" class="day" stroke="black" stroke-width="0.5" width="16.48148148148148" height="16.48148148148148" x="791.1111111111111" y="0"></rect><rect fill="transparent" class="day" stroke="black" stroke-width="0.5" width="16.48148148148148" height="16.48148148148148" x="791.1111111111111" y="16.48148148148148"></rect><rect fill="transparent" class="day" stroke="black" stroke-width="0.5" width="16.48148148148148" height="16.48148148148148" x="791.1111111111111" y="32.96296296296296"></rect><rect fill="transparent" class="day" stroke="black" stroke-width="0.5" width="16.48148148148148" height="16.48148148148148" x="791.1111111111111" y="49.44444444444444"></rect><rect fill="transparent" class="day" stroke="black" stroke-width="0.5" width="16.48148148148148" height="16.48148148148148" x="791.1111111111111" y="65.92592592592592"></rect><rect fill="transparent" class="day" stroke="black" stroke-width="0.5" width="16.48148148148148" height="16.48148148148148" x="791.1111111111111" y="82.4074074074074"></rect><rect fill="transparent" class="day" stroke="black" stroke-width="0.5" width="16.48148148148148" height="16.48148148148148" x="791.1111111111111" y="98.88888888888889"></rect><rect fill="transparent" class="day" stroke="black" stroke-width="0.5" width="16.48148148148148" height="16.48148148148148" x="807.5925925925926" y="0"></rect><rect fill="transparent" class="day" stroke="black" stroke-width="0.5" width="16.48148148148148" height="16.48148148148148" x="807.5925925925926" y="16.48148148148148"></rect><rect fill="transparent" class="day" stroke="black" stroke-width="0.5" width="16.48148148148148" height="16.48148148148148" x="807.5925925925926" y="32.96296296296296"></rect><rect fill="transparent" class="day" stroke="black" stroke-width="0.5" width="16.48148148148148" height="16.48148148148148" x="807.5925925925926" y="49.44444444444444"></rect><rect fill="transparent" class="day" stroke="black" stroke-width="0.5" width="16.48148148148148" height="16.48148148148148" x="807.5925925925926" y="65.92592592592592"></rect><rect fill="transparent" class="day" stroke="black" stroke-width="0.5" width="16.48148148148148" height="16.48148148148148" x="807.5925925925926" y="82.4074074074074"></rect><rect fill="transparent" class="day" stroke="black" stroke-width="0.5" width="16.48148148148148" height="16.48148148148148" x="807.5925925925926" y="98.88888888888889"></rect><rect fill="transparent" class="day" stroke="black" stroke-width="0.5" width="16.48148148148148" height="16.48148148148148" x="824.074074074074" y="0"></rect><rect fill="transparent" class="day" stroke="black" stroke-width="0.5" width="16.48148148148148" height="16.48148148148148" x="824.074074074074" y="16.48148148148148"></rect><rect fill="transparent" class="day" stroke="black" stroke-width="0.5" width="16.48148148148148" height="16.48148148148148" x="824.074074074074" y="32.96296296296296"></rect><rect fill="transparent" class="day" stroke="black" stroke-width="0.5" width="16.48148148148148" height="16.48148148148148" x="824.074074074074" y="49.44444444444444"></rect><rect fill="transparent" class="day" stroke="black" stroke-width="0.5" width="16.48148148148148" height="16.48148148148148" x="824.074074074074" y="65.92592592592592"></rect><rect fill="transparent" class="day" stroke="black" stroke-width="0.5" width="16.48148148148148" height="16.48148148148148" x="824.074074074074" y="82.4074074074074"></rect><rect fill="transparent" class="day" stroke="black" stroke-width="0.5" width="16.48148148148148" height="16.48148148148148" x="824.074074074074" y="98.88888888888889"></rect><rect fill="transparent" class="day" stroke="black" stroke-width="0.5" width="16.48148148148148" height="16.48148148148148" x="840.5555555555555" y="0"></rect><rect fill="transparent" class="day" stroke="black" stroke-width="0.5" width="16.48148148148148" height="16.48148148148148" x="840.5555555555555" y="16.48148148148148"></rect><rect fill="transparent" class="day" stroke="black" stroke-width="0.5" width="16.48148148148148" height="16.48148148148148" x="840.5555555555555" y="32.96296296296296"></rect><rect fill="transparent" class="day" stroke="black" stroke-width="0.5" width="16.48148148148148" height="16.48148148148148" x="840.5555555555555" y="49.44444444444444"></rect><rect fill="transparent" class="day" stroke="black" stroke-width="0.5" width="16.48148148148148" height="16.48148148148148" x="840.5555555555555" y="65.92592592592592"></rect><rect fill="transparent" class="day" stroke="black" stroke-width="0.5" width="16.48148148148148" height="16.48148148148148" x="840.5555555555555" y="82.4074074074074"></rect><rect fill="transparent" class="day" stroke="black" stroke-width="0.5" width="16.48148148148148" height="16.48148148148148" x="840.5555555555555" y="98.88888888888889"></rect><rect fill="transparent" class="day" stroke="black" stroke-width="0.5" width="16.48148148148148" height="16.48148148148148" x="857.037037037037" y="0"></rect><rect fill="transparent" class="day" stroke="black" stroke-width="0.5" width="16.48148148148148" height="16.48148148148148" x="857.037037037037" y="16.48148148148148"></rect><rect fill="transparent" class="day" stroke="black" stroke-width="0.5" width="16.48148148148148" height="16.48148148148148" x="857.037037037037" y="32.96296296296296"></rect><rect fill="transparent" class="day" stroke="black" stroke-width="0.5" width="16.48148148148148" height="16.48148148148148" x="857.037037037037" y="49.44444444444444"></rect><rect fill="transparent" class="day" stroke="black" stroke-width="0.5" width="16.48148148148148" height="16.48148148148148" x="857.037037037037" y="65.92592592592592"></rect><rect fill="transparent" class="day" stroke="black" stroke-width="0.5" width="16.48148148148148" height="16.48148148148148" x="857.037037037037" y="82.4074074074074"></rect><path stroke="black" stroke-width="2" class="month" fill="none" d="M16.48148148148148,82.4074074074074H0V115.37037037037037H82.4074074074074V16.48148148148148H98.88888888888889V0H16.48148148148148Z"></path><path stroke="black" stroke-width="2" class="month" fill="none" d="M98.88888888888889,16.48148148148148H82.4074074074074V115.37037037037037H148.33333333333331V16.48148148148148H164.8148148148148V0H98.88888888888889Z"></path><path stroke="black" stroke-width="2" class="month" fill="none" d="M164.8148148148148,16.48148148148148H148.33333333333331V115.37037037037037H214.25925925925924V65.92592592592592H230.74074074074073V0H164.8148148148148Z"></path><path stroke="black" stroke-width="2" class="month" fill="none" d="M230.74074074074073,65.92592592592592H214.25925925925924V115.37037037037037H280.18518518518516V98.88888888888889H296.66666666666663V0H230.74074074074073Z"></path><path stroke="black" stroke-width="2" class="month" fill="none" d="M296.66666666666663,98.88888888888889H280.18518518518516V115.37037037037037H362.5925925925926V32.96296296296296H379.0740740740741V0H296.66666666666663Z"></path><path stroke="black" stroke-width="2" class="month" fill="none" d="M379.0740740740741,32.96296296296296H362.5925925925926V115.37037037037037H428.5185185185185V65.92592592592592H445V0H379.0740740740741Z"></path><path stroke="black" stroke-width="2" class="month" fill="none" d="M445,65.92592592592592H428.5185185185185V115.37037037037037H494.44444444444446V115.37037037037037H510.9259259259259V0H445Z"></path><path stroke="black" stroke-width="2" class="month" fill="none" d="M527.4074074074074,0H510.9259259259259V115.37037037037037H576.8518518518518V49.44444444444444H593.3333333333333V0H527.4074074074074Z"></path><path stroke="black" stroke-width="2" class="month" fill="none" d="M593.3333333333333,49.44444444444444H576.8518518518518V115.37037037037037H642.7777777777777V82.4074074074074H659.2592592592592V0H593.3333333333333Z"></path><path stroke="black" stroke-width="2" class="month" fill="none" d="M659.2592592592592,82.4074074074074H642.7777777777777V115.37037037037037H725.1851851851852V16.48148148148148H741.6666666666666V0H659.2592592592592Z"></path><path stroke="black" stroke-width="2" class="month" fill="none" d="M741.6666666666666,16.48148148148148H725.1851851851852V115.37037037037037H791.1111111111111V49.44444444444444H807.5925925925926V0H741.6666666666666Z"></path><path stroke="black" stroke-width="2" class="month" fill="none" d="M807.5925925925926,49.44444444444444H791.1111111111111V115.37037037037037H857.037037037037V98.88888888888889H873.5185185185185V0H807.5925925925926Z"></path><g class="titles-day" transform="translate(-5,16.48148148148148)"><text class="Mon" style="text-anchor: end;" dy="-.25em">Mon</text></g><g class="titles-day" transform="translate(-5,32.96296296296296)"><text class="Tue" style="text-anchor: end;" dy="-.25em">Tue</text></g><g class="titles-day" transform="translate(-5,49.44444444444444)"><text class="Wed" style="text-anchor: end;" dy="-.25em">Wed</text></g><g class="titles-day" transform="translate(-5,65.92592592592592)"><text class="Thu" style="text-anchor: end;" dy="-.25em">Thu</text></g><g class="titles-day" transform="translate(-5,82.4074074074074)"><text class="Fri" style="text-anchor: end;" dy="-.25em">Fri</text></g><g class="titles-day" transform="translate(-5,98.88888888888889)"><text class="Sat" style="text-anchor: end;" dy="-.25em">Sat</text></g><g class="titles-day" transform="translate(-5,115.37037037037037)"><text class="Sun" style="text-anchor: end;" dy="-.25em">Sun</text></g><g class="titles-month" transform="translate(54.938271604938265,-5)"><text class="Jan" style="text-anchor: end;">Jan</text></g><g class="titles-month" transform="translate(126.35802469135801,-5)"><text class="Feb" style="text-anchor: end;">Feb</text></g><g class="titles-month" transform="translate(197.77777777777777,-5)"><text class="Mar" style="text-anchor: end;">Mar</text></g><g class="titles-month" transform="translate(269.1975308641975,-5)"><text class="Apr" style="text-anchor: end;">Apr</text></g><g class="titles-month" transform="translate(340.6172839506172,-5)"><text class="May" style="text-anchor: end;">May</text></g><g class="titles-month" transform="translate(412.037037037037,-5)"><text class="Jun" style="text-anchor: end;">Jun</text></g><g class="titles-month" transform="translate(483.4567901234568,-5)"><text class="Jul" style="text-anchor: end;">Jul</text></g><g class="titles-month" transform="translate(554.8765432098764,-5)"><text class="Aug" style="text-anchor: end;">Aug</text></g><g class="titles-month" transform="translate(626.2962962962962,-5)"><text class="Sep" style="text-anchor: end;">Sep</text></g><g class="titles-month" transform="translate(697.7160493827158,-5)"><text class="Oct" style="text-anchor: end;">Oct</text></g><g class="titles-month" transform="translate(769.1358024691357,-5)"><text class="Nov" style="text-anchor: end;">Nov</text></g><g class="titles-month" transform="translate(840.5555555555554,-5)"><text class="Dec" style="text-anchor: end;">Dec</text></g></g></g></svg>