<svg xmlns="http://www.w3.org/2000/svg" width="950" height="160" viewBox="0 0 950 160" class="chart"><g transform="translate(20,20)"><g class="year" font-size="smaller" transform="translate(30,0)"><text class="year-title" transform="translate(-38,52.5)rotate(-90)" text-anchor="middle">2024</text><rect fill="rgb(34, 34, 255)" class="day" stroke="black" stroke-width="0.5" width="15" height="15" x="15" y="0"></rect><rect fill="rgb(34, 34, 255)" class="day" stroke="black" stroke-width="0.5" width="15" height="15" x="15" y="15"></rect><rect fill="rgb(34, 34, 255)" class="day" stroke="black" stroke-width="0.5" width="15" height="15" x="15" y="30"></rect><rect fill="rgb(34, 34, 255)" class="day" stroke="black" stroke-width="0.5" width="15" height="15" x="15" y="45"></rect><rect fill="rgb(34, 34, 255)" class="day" stroke="black" stroke-width="0.5" width="15" height="15" x="15" y="60"></rect><rect fill="rgb(34, 34, 255)" class="day" stroke="black" stroke-width="0.5" width="15" height="15" x="15" y="75"></rect><rect fill="rgb(34, 34, 255)" class="day" stroke="black" stroke-width="0.5" width="15" height="15" x="15" y="90"></rect><rect fill="rgb(34, 34, 255)" class="day" stroke="black" stroke-width="0.5" width="15" height="15" x="30" y="0"></rect><rect fill="rgb(34, 34, 255)" class="day" stroke="black" stroke-width="0.5" width="15" height="15" x="30" y="15"></rect><rect fill="rgb(34, 34, 255)" class="day" stroke="black" stroke-width="0.5" width="15" height="15" x="30" y="30"></rect><rect fill="rgb(34, 34, 255)" class="day" stroke="black" stroke-width="0.5" width="15" height="15" x="30" y="45"></rect><rect fill="rgb(34, 34, 255)" class="day" stroke="black" stroke-width="0.5" width="15" height="15" x="30" y="60"></rect><rect fill="rgb(34, 34, 255)" class="day" stroke="black" stroke-width="0.5" width="15" height="15" x="30" y="75"></rect><rect fill="rgb(34, 34, 255)" class="day" stroke="black" stroke-width="0.5" width="15" height="15" x="30" y="90"></rect><rect fill="rgb(34, 34, 255)" class="day" stroke="black" stroke-width="0.5" width="15" height="15" x="45" y="0"></rect><rect fill="rgb(34, 34, 255)" class="day" stroke="black" stroke-width="0.5" width="15" height="15" x="45" y="15"></rect><rect fill="rgb(34, 34, 255)" class="day" stroke="black" stroke-width="0.5" width="15" height="15" x="45" y="30"></rect><rect fill="rgb(34, 34, 255)" class="day" stroke="black" stroke-width="0.5" width="15" height="15" x="45" y="45"></rect><rect fill="rgb(34, 34, 255)" class="day" stroke="black" stroke-width="0.5" width="15" height="15" x="45" y="60"></rect><rect fill="rgb(34, 34, 255)" class="day" stroke="black" stroke-width="0.5" width="15" height="15" x="45" y="75"></rect><rect fill="rgb(34, 34, 255)" class="day" stroke="black" stroke-width="0.5" width="15" height="15" x="45" y="90"></rect><rect fill="rgb(34, 34, 255)" class="day" stroke="black" stroke-width="0.5" width="15" height="15" x="60" y="0"></rect><rect fill="rgb(34, 34, 255)" class="day" stroke="black" stroke-width="0.5" width="15" height="15" x="60" y="15"></rect><rect fill="rgb(34, 34, 255)" class="day" stroke="black" stroke-width="0.5" width="15" height="15" x="60" y="30"></rect><rect fill="rgb(34, 34, 255)" class="day" stroke="black" stroke-width="0.5" width="15" height="15" x="60" y="45"></rect><rect fill="rgb(34, 34, 255)" class="day" stroke="black" stroke-width="0.5" width="15" height="15" x="60" y="60"></rect><rect fill="rgb(34, 34, 255)" class="day" stroke="black" stroke-width="0.5" width="15" height="15" x="60" y="75"></rect><rect fill="rgb(34, 34, 255)" class="day" stroke="black" stroke-width="0.5" width="15" height="15" x="60" y="90"></rect><rect fill="rgb(34, 34, 255)" class="day" stroke="black" stroke-width="0.5" width="15" height="15" x="75" y="0"></rect><rect fill="transparent" class="day" stroke="black" stroke-width="0.5" width="15" height="15" x="75" y="15"></rect><rect fill="transparent" class="day" stroke="black" stroke-width="0.5" width="15" height="15" x="75" y="30"></rect><rect fill="rgb(34, 34, 255)" class="day" stroke="black" stroke-width="0.5" width="15" height="15" x="75" y="45"></rect><rect fill="rgb(34, 34, 255)" class="day" stroke="black" stroke-width="0.5" width="15" height="15" x="75" y="60"></rect><rect fill="rgb(34, 34, 255)" class="day" stroke="black" stroke-width="0.5" width="15" height="15" x="75" y="75"></rect><rect fill="rgb(34, 34, 255)" class="day" stroke="black" stroke-width="0.5" width="15" height="15" x="75" y="90"></rect><rect fill="rgb(34, 34, 255)" class="day" stroke="black" stroke-width="0.5" width="15" height="15" x="90" y="0"></rect><rect fill="rgb(34, 34, 255)" class="day" stroke="black" stroke-width="0.5" width="15" height="15" x="90" y="15"></rect><rect fill="rgb(34, 34, 255)" class="day" stroke="black" stroke-width="0.5" width="15" height="15" x="90" y="30"></rect><rect fill="rgb(34, 34, 255)" class="day" stroke="black" stroke-width="0.5" width="15" height="15" x="90" y="45"></rect><rect fill="rgb(34, 34, 255)" class="day" stroke="black" stroke-width="0.5" width="15" height="15" x="90" y="60"></rect><rect fill="rgb(34, 34, 255)" class="day" stroke="black" stroke-width="0.5" width="15" height="15" x="90" y="75"></rect><rect fill="rgb(34, 34, 255)" class="day" stroke="black" stroke-width="0.5" width="15" height="15" x="90" y="90"></rect><rect fill="rgb(34, 34, 255)" class="day" stroke="black" stroke-width="0.5" width="15" height="15" x="105" y="0"></rect><rect fill="rgb(34, 34, 255)" class="day" stroke="black" stroke-width="0.5" width="15" height="15" x="105" y="15"></rect><rect fill="rgb(34, 34, 255)" class="day" stroke="black" stroke-width="0.5" width="15" height="15" x="105" y="30"></rect><rect fill="rgb(34, 34, 255)" class="day" stroke="black" stroke-width="0.5" width="15" height="15" x="105" y="45"></rect><rect fill="rgb(34, 34, 255)" class="day" stroke="black" stroke-width="0.5" width="15" height="15" x="105" y="60"></rect><rect fill="rgb(34, 34, 255)" class="day" stroke="black" stroke-width="0.5" width="15" height="15" x="105" y="75"></rect><rect fill="rgb(34, 34, 255)" class="day" stroke="black" stroke-width="0.5" width="15" height="15" x="105" y="90"></rect><rect fill="rgb(34, 34, 255)" class="day" stroke="black" stroke-width="0.5" width="15" height="15" x="120" y="0"></rect><rect fill="rgb(34, 34, 255)" class="day" stroke="black" stroke-width="0.5" width="15" height="15" x="120" y="15"></rect><rect fill="rgb(34, 34, 255)" class="day" stroke="black" stroke-width="0.5" width="15" height="15" x="120" y="30"></rect><rect fill="rgb(34, 34, 255)" class="day" stroke="black" stroke-width="0.5" width="15" height="15" x="120" y="45"></rect><rect fill="rgb(34, 34, 255)" class="day" stroke="black" stroke-width="0.5" width="15" height="15" x="120" y="60"></rect><rect fill="rgb(34, 34, 255)" class="day" stroke="black" stroke-width="0.5" width="15" height="15" x="120" y="75"></rect><rect fill="rgb(34, 34, 255)" class="day" stroke="black" stroke-width="0.5" width="15" height="15" x="120" y="90"></rect><rect fill="rgb(34, 34, 255)" class="day" stroke="black" stroke-width="0.5" width="15" height="15" x="135" y="0"></rect><rect fill="rgb(34, 34, 255)" class="day" stroke="black" stroke-width="0.5" width="15" height="15" x="135" y="15"></rect><rect fill="rgb(34, 34, 255)" class="day" stroke="black" stroke-width="0.5" width="15" height="15" x="135" y="30"></rect><rect fill="rgb(34, 34, 255)" class="day" stroke="black" stroke-width="0.5" width="15" height="15" x="135" y="45"></rect><rect fill="rgb(34, 34, 255)" class="day" stroke="black" stroke-width="0.5" width="15" height="15" x="135" y="60"></rect><rect fill="rgb(34, 34, 255)" class="day" stroke="black" stroke-width="0.5" width="15" height="15" x="135" y="75"></rect><rect fill="rgb(34, 34, 255)" class="day" stroke="black" stroke-width="0.5" width="15" height="15" x="135" y="90"></rect><rect fill="rgb(34, 34, 255)" class="day" stroke="black" stroke-width="0.5" width="15" height="15" x="150" y="0"></rect><rect fill="rgb(34, 34, 255)" class="day" stroke="black" stroke-width="0.5" width="15" height="15" x="150" y="15"></rect><rect fill="rgb(34, 34, 255)" class="day" stroke="black" stroke-width="0.5" width="15" height="15" x="150" y="30"></rect><rect fill="rgb(34, 34, 255)" class="day" stroke="black" stroke-width="0.5" width="15" height="15" x="150" y="45"></rect><rect fill="rgb(34, 34, 255)" class="day" stroke="black" stroke-width="0.5" width="15" height="15" x="150" y="60"></rect><rect fill="rgb(34, 34, 255)" class="day" stroke="black" stroke-width="0.5" width="15" height="15" x="150" y="75"></rect><rect fill="rgb(34, 34, 255)" class="day" stroke="black" stroke-width="0.5" width="15" height="15" x="150" y="90"></rect><rect fill="rgb(34, 34, 255)" class="day" stroke="black" stroke-width="0.5" width="15" height="15" x="165" y="0"></rect><rect fill="rgb(34, 34, 255)" class="day" stroke="black" stroke-width="0.5" width="15" height="15" x="165" y="15"></rect><rect fill="rgb(34, 34, 255)" class="day" stroke="black" stroke-width="0.5" width="15" height="15" x="165" y="30"></rect><rect fill="rgb(34, 34, 255)" class="day" stroke="black" stroke-width="0.5" width="15" height="15" x="165" y="45"></rect><rect fill="rgb(34, 34, 255)" class="day" stroke="black" stroke-width="0.5" width="15" height="15" x="165" y="60"></rect><rect fill="rgb(34, 34, 255)" class="day" stroke="black" stroke-width="0.5" width="15" height="15" x="165" y="75"></rect><rect fill="rgb(34, 34, 255)" class="day" stroke="black" stroke-width="0.5" width="15" height="15" x="165" y="90"></rect><rect fill="rgb(34, 34, 255)" class="day" stroke="black" stroke-width="0.5" width="15" height="15" x="180" y="0"></rect><rect fill="rgb(34, 34, 255)" class="day" stroke="black" stroke-width="0.5" width="15" height="15" x="180" y="15"></rect><rect fill="rgb(34, 34, 255)" class="day" stroke="black" stroke-width="0.5" width="15" height="15" x="180" y="30"></rect><rect fill="rgb(34, 34, 255)" class="day" stroke="black" stroke-width="0.5" width="15" height="15" x="180" y="45"></rect><rect fill="rgb(34, 34, 255)" class="day" stroke="black" stroke-width="0.5" width="15" height="15" x="180" y="60"></rect><rect fill="rgb(34, 34, 255)" class="day" stroke="black" stroke-width="0.5" width="15" height="15" x="180" y="75"></rect><rect fill="rgb(34, 34, 255)" class="day" stroke="black" stroke-width="0.5" width="15" height="15" x="180" y="90"></rect><rect fill="rgb(34, 34, 255)" class="day" stroke="black" stroke-width="0.5" width="15" height="15" x="195" y="0"></rect><rect fill="rgb(34, 34, 255)" class="day" stroke="black" stroke-width="0.5" width="15" height="15" x="195" y="15"></rect><rect fill="rgb(34, 34, 255)" class="day" stroke="black" stroke-width="0.5" width="15" height="15" x="195" y="30"></rect><rect fill="rgb(34, 34, 255)" class="day" stroke="black" stroke-width="0.5" width="15" height="15" x="195" y="45"></rect><rect fill="rgb(34, 34, 255)" class="day" stroke="black" stroke-width="0.5" width="15" height="15" x="195" y="60"></rect><rect fill="rgb(34, 34, 255)" class="day" stroke="black" stroke-width="0.5" width="15" height="15" x="195" y="75"></rect><rect fill="transparent" class="day" stroke="black" stroke-width="0.5" width="15" height="15" x="195" y="90"></rect><rect fill="rgb(34, 34, 255)" class="day" stroke="black" stroke-width="0.5" width="15" height="15" x="210" y="0"></rect><rect fill="rgb(34, 34, 255)" class="day" stroke="black" stroke-width="0.5" width="15" height="15" x="210" y="15"></rect><rect fill="rgb(34, 34, 255)" class="day" stroke="black" stroke-width="0.5" width="15" height="15" x="210" y="30"></rect><rect fill="rgb(34, 34, 255)" class="day" stroke="black" stroke-width="0.5" width="15" height="15" x="210" y="45"></rect><rect fill="rgb(34, 34, 255)" class="day" stroke="black" stroke-width="0.5" width="15" height="15" x="210" y="60"></rect><rect fill="rgb(34, 34, 255)" class="day" stroke="black" stroke-width="0.5" width="15" height="15" x="210" y="75"></rect><rect fill="rgb(34, 34, 255)" class="day" stroke="black" stroke-width="0.5" width="15" height="15" x="210" y="90"></rect><rect fill="rgb(34, 34, 255)" class="day" stroke="black" stroke-width="0.5" width="15" height="15" x="225" y="0"></rect><rect fill="rgb(34, 34, 255)" class="day" stroke="black" stroke-width="0.5" width="15" height="15" x="225" y="15"></rect><rect fill="rgb(34, 34, 255)" class="day" stroke="black" stroke-width="0.5" width="15" height="15" x="225" y="30"></rect><rect fill="rgb(34, 34, 255)" class="day" stroke="black" stroke-width="0.5" width="15" height="15" x="225" y="45"></rect><rect fill="rgb(34, 34, 255)" class="day" stroke="black" stroke-width="0.5" width="15" height="15" x="225" y="60"></rect><rect fill="rgb(34, 34, 255)" class="day" stroke="black" stroke-width="0.5" width="15" height="15" x="225" y="75"></rect><rect fill="rgb(34, 34, 255)" class="day" stroke="black" stroke-width="0.5" width="15" height="15" x="225" y="90"></rect><rect fill="rgb(34, 34, 255)" class="day" stroke="black" stroke-width="0.5" width="15" height="15" x="240" y="0"></rect><rect fill="rgb(34, 34, 255)" class="day" stroke="black" stroke-width="0.5" width="15" height="15" x="240" y="15"></rect><rect fill="rgb(34, 34, 255)" class="day" stroke="black" stroke-width="0.5" width="15" height="15" x="240" y="30"></rect><rect fill="rgb(34, 34, 255)" class="day" stroke="black" stroke-width="0.5" width="15" height="15" x="240" y="45"></rect><rect fill="rgb(34, 34, 255)" class="day" stroke="black" stroke-width="0.5" width="15" height="15" x="240" y="60"></rect><rect fill="rgb(34, 34, 255)" class="day" stroke="black" stroke-width="0.5" width="15" height="15" x="240" y="75"></rect><rect fill="rgb(34, 34, 255)" class="day" stroke="black" stroke-width="0.5" width="15" height="15" x="240" y="90"></rect><rect fill="rgb(34, 34, 255)" class="day" stroke="black" stroke-width="0.5" width="15" height="15" x="255" y="0"></rect><rect fill="rgb(34, 34, 255)" class="day" stroke="black" stroke-width="0.5" width="15" height="15" x="255" y="15"></rect><rect fill="rgb(34, 34, 255)" class="day" stroke="black" stroke-width="0.5" width="15" height="15" x="255" y="30"></rect><rect fill="rgb(34, 34, 255)" class="day" stroke="black" stroke-width="0.5" width="15" height="15" x="255" y="45"></rect><rect fill="rgb(34, 34, 255)" class="day" stroke="black" stroke-width="0.5" width="15" height="15" x="255" y="60"></rect><rect fill="rgb(34, 34, 255)" class="day" stroke="black" stroke-width="0.5" width="15" height="15" x="255" y="75"></rect><rect fill="rgb(34, 34, 255)" class="day" stroke="black" stroke-width="0.5" width="15" height="15" x="255" y="90"></rect><rect fill="rgb(34, 34, 255)" class="day" stroke="black" stroke-width="0.5" width="15" height="15" x="270" y="0"></rect><rect fill="rgb(34, 34, 255)" class="day" stroke="black" stroke-width="0.5" width="15" height="15" x="270" y="15"></rect><rect fill="rgb(34, 34, 255)" class="day" stroke="black" stroke-width="0.5" width="15" height="15" x="270" y="30"></rect><rect fill="rgb(34, 34, 255)" class="day" stroke="black" stroke-width="0.5" width="15" height="15" x="270" y="45"></rect><rect fill="rgb(34, 34, 255)" class="day" stroke="black" stroke-width="0.5" width="15" height="15" x="270" y="60"></rect><rect fill="rgb(34, 34, 255)" class="day" stroke="black" stroke-width="0.5" width="15" height="15" x="270" y="75"></rect><rect fill="transparent" class="day" stroke="black" stroke-width="0.5" width="15" height="15" x="270" y="90"></rect><rect fill="rgb(34, 34, 255)" class="day" stroke="black" stroke-width="0.5" width="15" height="15" x="285" y="0"></rect><rect fill="rgb(34, 34, 255)" class="day" stroke="black" stroke-width="0.5" width="15" height="15" x="285" y="15"></rect><rect fill="rgb(34, 34, 255)" class="day" stroke="black" stroke-width="0.5" width="15" height="15" x="285" y="30"></rect><rect fill="rgb(34, 34, 255)" class="day" stroke="black" stroke-width="0.5" width="15" height="15" x="285" y="45"></rect><rect fill="rgb(34, 34, 255)" class="day" stroke="black" stroke-width="0.5" width="15" height="15" x="285" y="60"></rect><rect fill="rgb(34, 34, 255)" class="day" stroke="black" stroke-width="0.5" width="15" height="15" x="285" y="75"></rect><rect fill="rgb(34, 34, 255)" class="day" stroke="black" stroke-width="0.5" width="15" height="15" x="285" y="90"></rect><rect fill="rgb(34, 34, 255)" class="day" stroke="black" stroke-width="0.5" width="15" height="15" x="300" y="0"></rect><rect fill="rgb(34, 34, 255)" class="day" stroke="black" stroke-width="0.5" width="15" height="15" x="300" y="15"></rect><rect fill="rgb(34, 34, 255)" class="day" stroke="black" stroke-width="0.5" width="15" height="15" x="300" y="30"></rect><rect fill="rgb(34, 34, 255)" class="day" stroke="black" stroke-width="0.5" width="15" height="15" x="300" y="45"></rect><rect fill="rgb(34, 34, 255)" class="day" stroke="black" stroke-width="0.5" width="15" height="15" x="300" y="60"></rect><rect fill="rgb(34, 34, 255)" class="day" stroke="black" stroke-width="0.5" width="15" height="15" x="300" y="75"></rect><rect fill="rgb(34, 34, 255)" class="day" stroke="black" stroke-width="0.5" width="15" height="15" x="300" y="90"></rect><rect fill="rgb(34, 34, 255)" class="day" stroke="black" stroke-width="0.5" width="15" height="15" x="315" y="0"></rect><rect fill="rgb(34, 34, 255)" class="day" stroke="black" stroke-width="0.5" width="15" height="15" x="315" y="15"></rect><rect fill="rgb(34, 34, 255)" class="day" stroke="black" stroke-width="0.5" width="15" height="15" x="315" y="30"></rect><rect fill="rgb(34, 34, 255)" class="day" stroke="black" stroke-width="0.5" width="15" height="15" x="315" y="45"></rect><rect fill="rgb(34, 34, 255)" class="day" stroke="black" stroke-width="0.5" width="15" height="15" x="315" y="60"></rect><rect fill="rgb(34, 34, 255)" class="day" stroke="black" stroke-width="0.5" width="15" height="15" x="315" y="75"></rect><rect fill="rgb(34, 34, 255)" class="day" stroke="black" stroke-width="0.5" width="15" height="15" x="315" y="90"></rect><rect fill="rgb(34, 34, 255)" class="day" stroke="black" stroke-width="0.5" width="15" height="15" x="330" y="0"></rect><rect fill="rgb(34, 34, 255)" class="day" stroke="black" stroke-width="0.5" width="15" height="15" x="330" y="15"></rect><rect fill="transparent" class="day" stroke="black" stroke-width="0.5" width="15" height="15" x="330" y="30"></rect><rect fill="rgb(34, 34, 255)" class="day" stroke="black" stroke-width="0.5" width="15" height="15" x="330" y="45"></rect><rect fill="transparent" class="day" stroke="black" stroke-width="0.5" width="15" height="15" x="330" y="60"></rect><rect fill="rgb(34, 34, 255)" class="day" stroke="black" stroke-width="0.5" width="15" height="15" x="330" y="75"></rect><rect fill="rgb(34, 34, 255)" class="day" stroke="black" stroke-width="0.5" width="15" height="15" x="330" y="90"></rect><rect fill="rgb(34, 34, 255)" class="day" stroke="black" stroke-width="0.5" width="15" height="15" x="345" y="0"></rect><rect fill="rgb(34, 34, 255)" class="day" stroke="black" stroke-width="0.5" width="15" height="15" x="345" y="15"></rect><rect fill="rgb(34, 34, 255)" class="day" stroke="black" stroke-width="0.5" width="15" height="15" x="345" y="30"></rect><rect fill="rgb(34, 34, 255)" class="day" stroke="black" stroke-width="0.5" width="15" height="15" x="345" y="45"></rect><rect fill="rgb(34, 34, 255)" class="day" stroke="black" stroke-width="0.5" width="15" height="15" x="345" y="60"></rect><rect fill="rgb(34, 34, 255)" class="day" stroke="black" stroke-width="0.5" width="15" height="15" x="345" y="75"></rect><rect fill="rgb(34, 34, 255)" class="day" stroke="black" stroke-width="0.5" width="15" height="15" x="345" y="90"></rect><rect fill="rgb(34, 34, 255)" class="day" stroke="black" stroke-width="0.5" width="15" height="15" x="360" y="0"></rect><rect fill="rgb(34, 34, 255)" class="day" stroke="black" stroke-width="0.5" width="15" height="15" x="360" y="15"></rect><rect fill="rgb(34, 34, 255)" class="day" stroke="black" stroke-width="0.5" width="15" height="15" x="360" y="30"></rect><rect fill="rgb(34, 34, 255)" class="day" stroke="black" stroke-width="0.5" width="15" height="15" x="360" y="45"></rect><rect fill="rgb(34, 34, 255)" class="day" stroke="black" stroke-width="0.5" width="15" height="15" x="360" y="60"></rect><rect fill="rgb(34, 34, 255)" class="day" stroke="black" stroke-width="0.5" width="15" height="15" x="360" y="75"></rect><rect fill="rgb(34, 34, 255)" class="day" stroke="black" stroke-width="0.5" width="15" height="15" x="360" y="90"></rect><rect fill="rgb(34, 34, 255)" class="day" stroke="black" stroke-width="0.5" width="15" height="15" x="375" y="0"></rect><rect fill="rgb(34, 34, 255)" class="day" stroke="black" stroke-width="0.5" width="15" height="15" x="375" y="15"></rect><rect fill="rgb(34, 34, 255)" class="day" stroke="black" stroke-width="0.5" width="15" height="15" x="375" y="30"></rect><rect fill="rgb(34, 34, 255)" class="day" stroke="black" stroke-width="0.5" width="15" height="15" x="375" y="45"></rect><rect fill="rgb(34, 34, 255)" class="day" stroke="black" stroke-width="0.5" width="15" height="15" x="375" y="60"></rect><rect fill="rgb(34, 34, 255)" class="day" stroke="black" stroke-width="0.5" width="15" height="15" x="375" y="75"></rect><rect fill="rgb(34, 34, 255)" class="day" stroke="black" stroke-width="0.5" width="15" height="15" x="375" y="90"></rect><rect fill="rgb(34, 34, 255)" class="day" stroke="black" stroke-width="0.5" width="15" height="15" x="390" y="0"></rect><rect fill="rgb(34, 34, 255)" class="day" stroke="black" stroke-width="0.5" width="15" height="15" x="390" y="15"></rect><rect fill="rgb(34, 34, 255)" class="day" stroke="black" stroke-width="0.5" width="15" height="15" x="390" y="30"></rect><rect fill="rgb(34, 34, 255)" class="day" stroke="black" stroke-width="0.5" width="15" height="15" x="390" y="45"></rect><rect fill="rgb(34, 34, 255)" class="day" stroke="black" stroke-width="0.5" width="15" height="15" x="390" y="60"></rect><rect fill="rgb(34, 34, 255)" class="day" stroke="black" stroke-width="0.5" width="15" height="15" x="390" y="75"></rect><rect fill="rgb(34, 34, 255)" class="day" stroke="black" stroke-width="0.5" width="15" height="15" x="390" y="90"></rect><rect fill="rgb(34, 34, 255)" class="day" stroke="black" stroke-width="0.5" width="15" height="15" x="405" y="0"></rect><rect fill="rgb(34, 34, 255)" class="day" stroke="black" stroke-width="0.5" width="15" height="15" x="405" y="15"></rect><rect fill="rgb(34, 34, 255)" class="day" stroke="black" stroke-width="0.5" width="15" height="15" x="405" y="30"></rect><rect fill="rgb(34, 34, 255)" class="day" stroke="black" stroke-width="0.5" width="15" height="15" x="405" y="45"></rect><rect fill="rgb(34, 34, 255)" class="day" stroke="black" stroke-width="0.5" width="15" height="15" x="405" y="60"></rect><rect fill="rgb(34, 34, 255)" class="day" stroke="black" stroke-width="0.5" width="15" height="15" x="405" y="75"></rect><rect fill="rgb(34, 34, 255)" class="day" stroke="black" stroke-width="0.5" width="15" height="15" x="405" y="90"></rect><rect fill="rgb(34, 34, 255)" class="day" stroke="black" stroke-width="0.5" width="15" height="15" x="420" y="0"></rect><rect fill="rgb(34, 34, 255)" class="day" stroke="black" stroke-width="0.5" width="15" height="15" x="420" y="15"></rect><rect fill="rgb(34, 34, 255)" class="day" stroke="black" stroke-width="0.5" width="15" height="15" x="420" y="30"></rect><rect fill="rgb(34, 34, 255)" class="day" stroke="black" stroke-width="0.5" width="15" height="15" x="420" y="45"></rect><rect fill="transparent" class="day" stroke="black" stroke-width="0.5" width="15" height="15" x="420" y="60"></rect><rect fill="rgb(34, 34, 255)" class="day" stroke="black" stroke-width="0.5" width="15" height="15" x="420" y="75"></rect><rect fill="rgb(34, 34, 255)" class="day" stroke="black" stroke-width="0.5" width="15" height="15" x="420" y="90"></rect><rect fill="rgb(34, 34, 255)" class="day" stroke="black" stroke-width="0.5" width="15" height="15" x="435" y="0"></rect><rect fill="transparent" class="day" stroke="black" stroke-width="0.5" width="15" height="15" x="435" y="15"></rect><rect fill="rgb(34, 34, 255)" class="day" stroke="black" stroke-width="0.5" width="15" height="15" x="435" y="30"></rect><rect fill="rgb(34, 34, 255)" class="day" stroke="black" stroke-width="0.5" width="15" height="15" x="435" y="45"></rect><rect fill="rgb(34, 34, 255)" class="day" stroke="black" stroke-width="0.5" width="15" height="15" x="435" y="60"></rect><rect fill="rgb(34, 34, 255)" class="day" stroke="black" stroke-width="0.5" width="15" height="15" x="435" y="75"></rect><rect fill="rgb(34, 34, 255)" class="day" stroke="black" stroke-width="0.5" width="15" height="15" x="435" y="90"></rect><rect fill="rgb(34, 34, 255)" class="day" stroke="black" stroke-width="0.5" width="15" height="15" x="450" y="0"></rect><rect fill="rgb(34, 34, 255)" class="day" stroke="black" stroke-width="0.5" width="15" height="15" x="450" y="15"></rect><rect fill="rgb(34, 34, 255)" class="day" stroke="black" stroke-width="0.5" width="15" height="15" x="450" y="30"></rect><rect fill="transparent" class="day" stroke="black" stroke-width="0.5" width="15" height="15" x="450" y="45"></rect><rect fill="transparent" class="day" stroke="black" stroke-width="0.5" width="15" height="15" x="450" y="60"></rect><rect fill="rgb(34, 34, 255)" class="day" stroke="black" stroke-width="0.5" width="15" height="15" x="450" y="75"></rect><rect fill="rgb(34, 34, 255)" class="day" stroke="black" stroke-width="0.5" width="15" height="15" x="450" y="90"></rect><rect fill="transparent" class="day" stroke="black" stroke-width="0.5" width="15" height="15" x="465" y="0"></rect><rect fill="transparent" class="day" stroke="black" stroke-width="0.5" width="15" height="15" x="465" y="15"></rect><rect fill="transparent" class="day" stroke="black" stroke-width="0.5" width="15" height="15" x="465" y="30"></rect><rect fill="rgb(34, 34, 255)" class="day" stroke="black" stroke-width="0.5" width="15" height="15" x="465" y="45"></rect><rect fill="rgb(34, 34, 255)" class="day" stroke="black" stroke-width="0.5" width="15" height="15" x="465" y="60"></rect><rect fill="rgb(34, 34, 255)" class="day" stroke="black" stroke-width="0.5" width="15" height="15" x="465" y="75"></rect><rect fill="rgb(34, 34, 255)" class="day" stroke="black" stroke-width="0.5" width="15" height="15" x="465" y="90"></rect><rect fill="rgb(34, 34, 255)" class="day" stroke="black" stroke-width="0.5" width="15" height="15" x="480" y="0"></rect><rect fill="rgb(34, 34, 255)" class="day" stroke="black" stroke-width="0.5" width="15" height="15" x="480" y="15"></rect><rect fill="rgb(34, 34, 255)" class="day" stroke="black" stroke-width="0.5" width="15" height="15" x="480" y="30"></rect><rect fill="rgb(34, 34, 255)" class="day" stroke="black" stroke-width="0.5" width="15" height="15" x="480" y="45"></rect><rect fill="rgb(34, 34, 255)" class="day" stroke="black" stroke-width="0.5" width="15" height="15" x="480" y="60"></rect><rect fill="rgb(34, 34, 255)" class="day" stroke="black" stroke-width="0.5" width="15" height="15" x="480" y="75"></rect><rect fill="rgb(34, 34, 255)" class="day" stroke="black" stroke-width="0.5" width="15" height="15" x="480" y="90"></rect><rect fill="rgb(34, 34, 255)" class="day" stroke="black" stroke-width="0.5" width="15" height="15" x="495" y="0"></rect><rect fill="transparent" class="day" stroke="black" stroke-width="0.5" width="15" height="15" x="495" y="15"></rect><rect fill="transparent" class="day" stroke="black" stroke-width="0.5" width="15" height="15" x="495" y="30"></rect><rect fill="rgb(34, 34, 255)" class="day" stroke="black" stroke-width="0.5" width="15" height="15" x="495" y="45"></rect><rect fill="rgb(34, 34, 255)" class="day" stroke="black" stroke-width="0.5" width="15" height="15" x="495" y="60"></rect><rect fill="rgb(34, 34, 255)" class="day" stroke="black" stroke-width="0.5" width="15" height="15" x="495" y="75"></rect><rect fill="rgb(34, 34, 255)" class="day" stroke="black" stroke-width="0.5" width="15" height="15" x="495" y="90"></rect><rect fill="rgb(34, 34, 255)" class="day" stroke="black" stroke-width="0.5" width="15" height="15" x="510" y="0"></rect><rect fill="rgb(34, 34, 255)" class="day" stroke="black" stroke-width="0.5" width="15" height="15" x="510" y="15"></rect><rect fill="rgb(34, 34, 255)" class="day" stroke="black" stroke-width="0.5" width="15" height="15" x="510" y="30"></rect><rect fill="rgb(34, 34, 255)" class="day" stroke="black" stroke-width="0.5" width="15" height="15" x="510" y="45"></rect><rect fill="rgb(34, 34, 255)" class="day" stroke="black" stroke-width="0.5" width="15" height="15" x="510" y="60"></rect><rect fill="rgb(34, 34, 255)" class="day" stroke="black" stroke-width="0.5" width="15" height="15" x="510" y="75"></rect><rect fill="rgb(34, 34, 255)" class="day" stroke="black" stroke-width="0.5" width="15" height="15" x="510" y="90"></rect><rect fill="rgb(34, 34, 255)" class="day" stroke="black" stroke-width="0.5" width="15" height="15" x="525" y="0"></rect><rect fill="rgb(34, 34, 255)" class="day" stroke="black" stroke-width="0.5" width="15" height="15" x="525" y="15"></rect><rect fill="rgb(34, 34, 255)" class="day" stroke="black" stroke-width="0.5" width="15" height="15" x="525" y="30"></rect><rect fill="rgb(34, 34, 255)" class="day" stroke="black" stroke-width="0.5" width="15" height="15" x="525" y="45"></rect><rect fill="rgb(34, 34, 255)" class="day" stroke="black" stroke-width="0.5" width="15" height="15" x="525" y="60"></rect><rect fill="transparent" class="day" stroke="black" stroke-width="0.5" width="15" height="15" x="525" y="75"></rect><rect fill="rgb(34, 34, 255)" class="day" stroke="black" stroke-width="0.5" width="15" height="15" x="525" y="90"></rect><rect fill="rgb(34, 34, 255)" class="day" stroke="black" stroke-width="0.5" width="15" height="15" x="540" y="0"></rect><rect fill="rgb(34, 34, 255)" class="day" stroke="black" stroke-width="0.5" width="15" height="15" x="540" y="15"></rect><rect fill="rgb(34, 34, 255)" class="day" stroke="black" stroke-width="0.5" width="15" height="15" x="540" y="30"></rect><rect fill="rgb(34, 34, 255)" class="day" stroke="black" stroke-width="0.5" width="15" height="15" x="540" y="45"></rect><rect fill="rgb(34, 34, 255)" class="day" stroke="black" stroke-width="0.5" width="15" height="15" x="540" y="60"></rect><rect fill="rgb(34, 34, 255)" class="day" stroke="black" stroke-width="0.5" width="15" height="15" x="540" y="75"></rect><rect fill="rgb(34, 34, 255)" class="day" stroke="black" stroke-width="0.5" width="15" height="15" x="540" y="90"></rect><rect fill="rgb(34, 34, 255)" class="day" stroke="black" stroke-width="0.5" width="15" height="15" x="555" y="0"></rect><rect fill="rgb(34, 34, 255)" class="day" stroke="black" stroke-width="0.5" width="15" height="15" x="555" y="15"></rect><rect fill="rgb(34, 34, 255)" class="day" stroke="black" stroke-width="0.5" width="15" height="15" x="555" y="30"></rect><rect fill="rgb(34, 34, 255)" class="day" stroke="black" stroke-width="0.5" width="15" height="15" x="555" y="45"></rect><rect fill="rgb(34, 34, 255)" class="day" stroke="black" stroke-width="0.5" width="15" height="15" x="555" y="60"></rect><rect fill="rgb(34, 34, 255)" class="day" stroke="black" stroke-width="0.5" width="15" height="15" x="555" y="75"></rect><rect fill="rgb(34, 34, 255)" class="day" stroke="black" stroke-width="0.5" width="15" height="15" x="555" y="90"></rect><rect fill="rgb(34, 34, 255)" class="day" stroke="black" stroke-width="0.5" width="15" height="15" x="570" y="0"></rect><rect fill="rgb(34, 34, 255)" class="day" stroke="black" stroke-width="0.5" width="15" height="15" x="570" y="15"></rect><rect fill="rgb(34, 34, 255)" class="day" stroke="black" stroke-width="0.5" width="15" height="15" x="570" y="30"></rect><rect fill="rgb(34, 34, 255)" class="day" stroke="black" stroke-width="0.5" width="15" height="15" x="570" y="45"></rect><rect fill="rgb(34, 34, 255)" class="day" stroke="black" stroke-width="0.5" width="15" height="15" x="570" y="60"></rect><rect fill="rgb(34, 34, 255)" class="day" stroke="black" stroke-width="0.5" width="15" height="15" x="570" y="75"></rect><rect fill="rgb(34, 34, 255)" class="day" stroke="black" stroke-width="0.5" width="15" height="15" x="570" y="90"></rect><rect fill="rgb(34, 34, 255)" class="day" stroke="black" stroke-width="0.5" width="15" height="15" x="585" y="0"></rect><rect fill="rgb(34, 34, 255)" class="day" stroke="black" stroke-width="0.5" width="15" height="15" x="585" y="15"></rect><rect fill="rgb(34, 34, 255)" class="day" stroke="black" stroke-width="0.5" width="15" height="15" x="585" y="30"></rect><rect fill="rgb(34, 34, 255)" class="day" stroke="black" stroke-width="0.5" width="15" height="15" x="585" y="45"></rect><rect fill="rgb(34, 34, 255)" class="day" stroke="black" stroke-width="0.5" width="15" height="15" x="585" y="60"></rect><rect fill="rgb(34, 34, 255)" class="day" stroke="black" stroke-width="0.5" width="15" height="15" x="585" y="75"></rect><rect fill="rgb(34, 34, 255)" class="day" stroke="black" stroke-width="0.5" width="15" height="15" x="585" y="90"></rect><rect fill="rgb(34, 34, 255)" class="day" stroke="black" stroke-width="0.5" width="15" height="15" x="600" y="0"></rect><rect fill="rgb(34, 34, 255)" class="day" stroke="black" stroke-width="0.5" width="15" height="15" x="600" y="15"></rect><rect fill="rgb(34, 34, 255)" class="day" stroke="black" stroke-width="0.5" width="15" height="15" x="600" y="30"></rect><rect fill="rgb(34, 34, 255)" class="day" stroke="black" stroke-width="0.5" width="15" height="15" x="600" y="45"></rect><rect fill="rgb(34, 34, 255)" class="day" stroke="black" stroke-width="0.5" width="15" height="15" x="600" y="60"></rect><rect fill="rgb(34, 34, 255)" class="day" stroke="black" stroke-width="0.5" width="15" height="15" x="600" y="75"></rect><rect fill="rgb(34, 34, 255)" class="day" stroke="black" stroke-width="0.5" width="15" height="15" x="600" y="90"></rect><rect fill="rgb(34, 34, 255)" class="day" stroke="black" stroke-width="0.5" width="15" height="15" x="615" y="0"></rect><rect fill="rgb(34, 34, 255)" class="day" stroke="black" stroke-width="0.5" width="15" height="15" x="615" y="15"></rect><rect fill="rgb(34, 34, 255)" class="day" stroke="black" stroke-width="0.5" width="15" height="15" x="615" y="30"></rect><rect fill="rgb(34, 34, 255)" class="day" stroke="black" stroke-width="0.5" width="15" height="15" x="615" y="45"></rect><rect fill="rgb(34, 34, 255)" class="day" stroke="black" stroke-width="0.5" width="15" height="15" x="615" y="60"></rect><rect fill="rgb(34, 34, 255)" class="day" stroke="black" stroke-width="0.5" width="15" height="15" x="615" y="75"></rect><rect fill="rgb(34, 34, 255)" class="day" stroke="black" stroke-width="0.5" width="15" height="15" x="615" y="90"></rect><rect fill="transparent" class="day" stroke="black" stroke-width="0.5" width="15" height="15" x="630" y="0"></rect><rect fill="rgb(34, 34, 255)" class="day" stroke="black" stroke-width="0.5" width="15" height="15" x="630" y="15"></rect><rect fill="rgb(34, 34, 255)" class="day" stroke="black" stroke-width="0.5" width="15" height="15" x="630" y="30"></rect><rect fill="rgb(34, 34, 255)" class="day" stroke="black" stroke-width="0.5" width="15" height="15" x="630" y="45"></rect><rect fill="rgb(34, 34, 255)" class="day" stroke="black" stroke-width="0.5" width="15" height="15" x="630" y="60"></rect><rect fill="rgb(34, 34, 255)" class="day" stroke="black" stroke-width="0.5" width="15" height="15" x="630" y="75"></rect><rect fill="rgb(34, 34, 255)" class="day" stroke="black" stroke-width="0.5" width="15" height="15" x="630" y="90"></rect><rect fill="rgb(34, 34, 255)" class="day" stroke="black" stroke-width="0.5" width="15" height="15" x="645" y="0"></rect><rect fill="rgb(34, 34, 255)" class="day" stroke="black" stroke-width="0.5" width="15" height="15" x="645" y="15"></rect><rect fill="rgb(34, 34, 255)" class="day" stroke="black" stroke-width="0.5" width="15" height="15" x="645" y="30"></rect><rect fill="rgb(34, 34, 255)" class="day" stroke="black" stroke-width="0.5" width="15" height="15" x="645" y="45"></rect><rect fill="rgb(34, 34, 255)" class="day" stroke="black" stroke-width="0.5" width="15" height="15" x="645" y="60"></rect><rect fill="rgb(34, 34, 255)" class="day" stroke="black" stroke-width="0.5" width="15" height="15" x="645" y="75"></rect><rect fill="rgb(34, 34, 255)" class="day" stroke="black" stroke-width="0.5" width="15" height="15" x="645" y="90"></rect><rect fill="rgb(34, 34, 255)" class="day" stroke="black" stroke-width="0.5" width="15" height="15" x="660" y="0"></rect><rect fill="rgb(34, 34, 255)" class="day" stroke="black" stroke-width="0.5" width="15" height="15" x="660" y="15"></rect><rect fill="rgb(34, 34, 255)" class="day" stroke="black" stroke-width="0.5" width="15" height="15" x="660" y="30"></rect><rect fill="transparent" class="day" stroke="black" stroke-width="0.5" width="15" height="15" x="660" y="45"></rect><rect fill="rgb(34, 34, 255)" class="day" stroke="black" stroke-width="0.5" width="15" height="15" x="660" y="60"></rect><rect fill="rgb(34, 34, 255)" class="day" stroke="black" stroke-width="0.5" width="15" height="15" x="660" y="75"></rect><rect fill="rgb(34, 34, 255)" class="day" stroke="black" stroke-width="0.5" width="15" height="15" x="660" y="90"></rect><rect fill="rgb(34, 34, 255)" class="day" stroke="black" stroke-width="0.5" width="15" height="15" x="675" y="0"></rect><rect fill="rgb(34, 34, 255)" class="day" stroke="black" stroke-width="0.5" width="15" height="15" x="675" y="15"></rect><rect fill="rgb(34, 34, 255)" class="day" stroke="black" stroke-width="0.5" width="15" height="15" x="675" y="30"></rect><rect fill="rgb(34, 34, 255)" class="day" stroke="black" stroke-width="0.5" width="15" height="15" x="675" y="45"></rect><rect fill="rgb(34, 34, 255)" class="day" stroke="black" stroke-width="0.5" width="15" height="15" x="675" y="60"></rect><rect fill="transparent" class="day" stroke="black" stroke-width="0.5" width="15" height="15" x="675" y="75"></rect><rect fill="transparent" class="day" stroke="black" stroke-width="0.5" width="15" height="15" x="675" y="90"></rect><rect fill="transparent" class="day" stroke="black" stroke-width="0.5" width="15" height="15" x="690" y="0"></rect><rect fill="transparent" class="day" stroke="black" stroke-width="0.5" width="15" height="15" x="690" y="15"></rect><rect fill="rgb(34, 34, 255)" class="day" stroke="black" stroke-width="0.5" width="15" height="15" x="690" y="30"></rect><rect fill="rgb(34, 34, 255)" class="day" stroke="black" stroke-width="0.5" width="15" height="15" x="690" y="45"></rect><rect fill="transparent" class="day" stroke="black" stroke-width="0.5" width="15" height="15" x="690" y="60"></rect><rect fill="transparent" class="day" stroke="black" stroke-width="0.5" width="15" height="15" x="690" y="75"></rect><rect fill="rgb(34, 34, 255)" class="day" stroke="black" stroke-width="0.5" width="15" height="15" x="690" y="90"></rect><rect fill="transparent" class="day" stroke="black" stroke-width="0.5" width="15" height="15" x="705" y="0"></rect><rect fill="rgb(34, 34, 255)" class="day" stroke="black" stroke-width="0.5" width="15" height="15" x="705" y="15"></rect><rect fill="rgb(34, 34, 255)" class="day" stroke="black" stroke-width="0.5" width="15" height="15" x="705" y="30"></rect><rect fill="rgb(34, 34, 255)" class="day" stroke="black" stroke-width="0.5" width="15" height="15" x="705" y="45"></rect><rect fill="rgb(34, 34, 255)" class="day" stroke="black" stroke-width="0.5" width="15" height="15" x="705" y="60"></rect><rect fill="transparent" class="day" stroke="black" stroke-width="0.5" width="15" height="15" x="705" y="75"></rect><rect fill="transparent" class="day" stroke="black" stroke-width="0.5" width="15" height="15" x="705" y="90"></rect><rect fill="transparent" class="day" stroke="black" stroke-width="0.5" width="15" height="15" x="720" y="0"></rect><rect fill="rgb(34, 34, 255)" class="day" stroke="black" stroke-width="0.5" width="15" height="15" x="720" y="15"></rect><rect fill="rgb(34, 34, 255)" class="day" stroke="black" stroke-width="0.5" width="15" height="15" x="720" y="30"></rect><rect fill="transparent" class="day" stroke="black" stroke-width="0.5" width="15" height="15" x="720" y="45"></rect><rect fill="transparent" class="day" stroke="black" stroke-width="0.5" width="15" height="15" x="720" y="60"></rect><rect fill="transparent" class="day" stroke="black" stroke-width="0.5" width="15" height="15" x="720" y="75"></rect><rect fill="transparent" class="day" stroke="black" stroke-width="0.5" width="15" height="15" x="720" y="90"></rect><rect fill="transparent" class="day" stroke="black" stroke-width="0.5" width="15" height="15" x="735" y="0"></rect><rect fill="transparent" class="day" stroke="black" stroke-width="0.5" width="15" height="15" x="735" y="15"></rect><rect fill="transparent" class="day" stroke="black" stroke-width="0.5" width="15" height="15" x="735" y="30"></rect><rect fill="transparent" class="day" stroke="black" stroke-width="0.5" width="15" height="15" x="735" y="45"></rect><rect fill="transparent" class="day" stroke="black" stroke-width="0.5" width="15" height="15" x="735" y="60"></rect><rect fill="transparent" class="day" stroke="black" stroke-width="0.5" width="15" height="15" x="735" y="75"></rect><rect fill="transparent" class="day" stroke="black" stroke-width="0.5" width="15" height="15" x="735" y="90"></rect><rect fill="transparent" class="day" stroke="black" stroke-width="0.5" width="15" height="15" x="750" y="0"></rect><rect fill="transparent" class="day" stroke="black" stroke-width="0.5" width="15" height="15" x="750" y="15"></rect><rect fill="transparent" class="day" stroke="black" stroke-width="0.5" width="15" height="15" x="750" y="30"></rect><rect fill="transparent" class="day" stroke="black" stroke-width="0.5" width="15" height="15" x="750" y="45"></rect><rect fill="transparent" class="day" stroke="black" stroke-width="0.5" width="15" height="15" x="750" y="60"></rect><rect fill="transparent" class="day" stroke="black" stroke-width="0.5" width="15" height="15" x="750" y="75"></rect><rect fill="transparent" class="day" stroke="black" stroke-width="0.5" width="15" height="15" x="750" y="90"></rect><rect fill="transparent" class="day" stroke="black" stroke-width="0.5" width="15" height="15" x="765" y="0"></rect><rect fill="transparent" class="day" stroke="black" stroke-width="0.5" width="15" height="15" x="765" y="15"></rect><rect fill="transparent" class="day" stroke="black" stroke-width="0.5" width="15" height="15" x="765" y="30"></rect><rect fill="transparent" class="day" stroke="black" stroke-width="0.5" width="15" height="15" x="765" y="45"></rect><rect fill="transparent" class="day" stroke="black" stroke-width="0.5" width="15" height="15" x="765" y="60"></rect><rect fill="transparent" class="day" stroke="black" stroke-width="0.5" width="15" height="15" x="765" y="75"></rect><rect fill="transparent" class="day" stroke="black" stroke-width="0.5" width="15" height="15" x="765" y="90"></rect><rect fill="transparent" class="day" stroke="black" stroke-width="0.5" width="15" height="15" x="780" y="0"></rect><rect fill="transparent" class="day" stroke="black" stroke-width="0.5" width="15" height="15" x="780" y="15"></rect><rect fill="transparent" class="day" stroke="black" stroke-width="0.5" width="15" height="15" x="780" y="30"></rect><rect fill="transparent" class="day" stroke="black" stroke-width="0.5" width="15" height="15" x="780" y="45"></rect><rect fill="transparent" class="day" stroke="black" stroke-width="0.5" width="15" height="15" x="780" y="60"></rect><rect fill="transparent" class="day" stroke="black" stroke-width="0.5" width="15" height="15" x="780" y="75"></rect><rect fill="transparent" class="day" stroke="black" stroke-width="0.5" width="15" height="15" x="780" y="90"></rect><rect fill="transparent" class="day" stroke="black" stroke-width="0.5" width="15" height="15" x="795" y="0"></rect><rect fill="transparent" class="day" stroke="black" stroke-width="0.5" width="15" height="15" x="795" y="15"></rect><path stroke="black" stroke-width="2" class="month" fill="none" d="M30,0H15V105H75V45H90V0H30Z"></path><path stroke="black" stroke-width="2" class="month" fill="none" d="M90,45H75V105H135V60H150V0H90Z"></path><path stroke="black" stroke-width="2" class="month" fill="none" d="M150,60H135V105H195V105H210V0H150Z"></path><path stroke="black" stroke-width="2" class="month" fill="none" d="M225,0H210V105H270V30H285V0H225Z"></path><path stroke="black" stroke-width="2" class="month" fill="none" d="M285,30H270V105H330V75H345V0H285Z"></path><path stroke="black" stroke-width="2" class="month" fill="none" d="M345,75H330V105H390V105H405V0H345Z"></path><path stroke="black" stroke-width="2" class="month" fill="none" d="M420,0H405V105H465V45H480V0H420Z"></path><path stroke="black" stroke-width="2" class="month" fill="none" d="M480,45H465V105H525V90H540V0H480Z"></path><path stroke="black" stroke-width="2" class="month" fill="none" d="M540,90H525V105H600V15H615V0H540Z"></path><path stroke="black" stroke-width="2" class="month" fill="none" d="M615,15H600V105H660V60H675V0H615Z"></path><path stroke="black" stroke-width="2" class="month" fill="none" d="M675,60H660V105H720V90H735V0H675Z"></path><path stroke="black" stroke-width="2" class="month" fill="none" d="M735,90H720V105H795V30H810V0H735Z"></path><g class="titles-day" transform="translate(-5,15)"><text class="Mon" style="text-anchor: end;" dy="-.25em">Mon</text></g><g class="titles-day" transform="translate(-5,30)"><text class="Tue" style="text-anchor: end;" dy="-.25em">Tue</text></g><g class="titles-day" transform="translate(-5,45)"><text class="Wed" style="text-anchor: end;" dy="-.25em">Wed</text></g><g class="titles-day" transform="translate(-5,60)"><text class="Thu" style="text-anchor: end;" dy="-.25em">Thu</text></g><g class="titles-day" transform="translate(-5,75)"><text class="Fri" style="text-anchor: end;" dy="-.25em">Fri</text></g><g class="titles-day" transform="translate(-5,90)"><text class="Sat" style="text-anchor: end;" dy="-.25em">Sat</text></g><g class="titles-day" transform="translate(-5,105)"><text class="Sun" style="text-anchor: end;" dy="-.25em">Sun</text></g><g class="titles-month" transform="translate(50,-5)"><text class="Jan" style="text-anchor: end;">Jan</text></g><g class="titles-month" transform="translate(115,-5)"><text class="Feb" style="text-anchor: end;">Feb</text></g><g class="titles-month" transform="translate(180,-5)"><text class="Mar" style="text-anchor: end;">Mar</text></g><g class="titles-month" transform="translate(245,-5)"><text class="Apr" style="text-anchor: end;">Apr</text></g><g class="titles-month" transform="translate(310,-5)"><text class="May" style="text-anchor: end;">May</text></g><g class="titles-month" transform="translate(375,-5)"><text class="Jun" style="text-anchor: end;">Jun</text></g><g class="titles-month" transform="translate(440,-5)"><text class="Jul" style="text-anchor: end;">Jul</text></g><g class="titles-month" transform="translate(505,-5)"><text class="Aug" style="text-anchor: end;">Aug</text></g><g class="titles-month" transform="translate(570,-5)"><text class="Sep" style="text-anchor: end;">Sep</text></g><g class="titles-month" transform="translate(635,-5)"><text class="Oct" style="text-anchor: end;">Oct</text></g><g class="titles-month" transform="translate(700,-5)"><text class="Nov" style="text-anchor: end;">Nov</text></g><g class="titles-month" transform="translate(765,-5)"><text class="Dec" style="text-anchor: end;">Dec</text></g></g></g></svg>